<svg width="200" height="144" viewBox="0 0 200 144" fill="none" xmlns="http://www.w3.org/2000/svg">
<path d="M196 0H4C1.79086 0 0 1.79086 0 4V140C0 142.209 1.79086 144 4 144H196C198.209 144 200 142.209 200 140V4C200 1.79086 198.209 0 196 0Z" fill="#F8FAFD"/>
<path d="M93.0015 93C96.8648 93 100 89.864 100 86V79H93.0015C89.1383 79 86.0029 82.136 86.0029 86C86.0029 89.864 89.1383 93 93.0015 93Z" fill="#71869D"/>
<path d="M86.0029 72C86.0029 68.136 89.1383 65 93.0015 65H100V79H93.0015C89.1383 79 86.0029 75.864 86.0029 72Z" fill="#D0D7E1"/>
<path d="M86.0029 58C86.0029 54.136 89.1383 51 93.0015 51H100V65H93.0015C89.1383 65 86.0029 61.864 86.0029 58Z" fill="#71869D"/>
<path d="M100 51H106.999C110.862 51 113.997 54.136 113.997 58C113.997 61.864 110.862 65 106.999 65H100V51Z" fill="#D0D7E1"/>
<path d="M113.997 72C113.997 75.864 110.862 79 106.999 79C103.135 79 100 75.864 100 72C100 68.136 103.135 65 106.999 65C110.862 65 113.997 68.136 113.997 72Z" fill="#71869D"/>
</svg>
