<svg width="360" height="117" viewBox="0 0 360 117" fill="none" xmlns="http://www.w3.org/2000/svg">
<path d="M359.919 60.8133C359.919 74.7886 360.029 88.7667 359.881 102.742C359.786 111.625 357.332 114.373 348.582 114.909C317.935 116.912 287.185 116.779 256.555 114.511C253.527 114.276 249.16 114.744 249.148 110.335C249.137 106.41 253.181 106.703 256.072 106.415C260.399 105.986 264.827 106.113 269.055 105.243C275.477 103.921 281.781 102.008 288.087 100.179C288.913 99.9411 289.437 98.7052 290.102 97.9317C289.1 97.59 288.051 97.4066 286.993 97.388C273.667 99.3287 260.548 98.05 247.388 95.5988C242.832 94.762 241.637 93.0732 242.491 88.8025C242.928 86.1096 243.077 83.3777 242.935 80.6532C242.855 76.3686 243.21 76.0369 247.555 77.5784C261.044 82.3612 274.599 81.3207 288.181 78.129C288.948 77.8166 289.665 77.3907 290.306 76.8655C289.643 76.309 288.892 75.8684 288.083 75.5621C284.034 74.8189 279.979 74.0344 275.89 73.6105C266.806 72.6704 259.546 67.9675 252.653 62.5585C248.14 59.0145 248.078 57.879 251.002 52.7576C252.706 49.7765 254.385 46.7816 256.074 43.7922C259.404 37.8932 259.556 37.8932 263.932 42.8701C271.524 51.5325 281.295 58.0054 292.233 61.6171C294.829 62.4976 297.541 62.9915 300.281 63.0829C301.899 63.1283 304.332 62.4278 304.961 61.2771C305.575 60.1513 304.793 57.7413 303.886 56.3925C299.427 49.9416 293.268 44.8522 286.093 41.6892C279.887 38.8126 273.316 36.7192 266.861 34.4084C261.59 32.52 260.833 31.1671 264.212 26.6734C267.471 21.9693 271.341 17.7204 275.722 14.0386C278.176 12.1489 282.619 11.8365 285.957 12.2948C295.892 13.678 303.662 19.4641 310.593 26.3238C314.001 29.6958 316.936 33.5413 320.161 37.1032C320.843 37.6482 321.604 38.0851 322.418 38.3984C322.556 37.3785 323.086 36.2155 322.773 35.3594C320.331 28.6691 315.578 23.6771 310.074 19.482C306.456 16.7294 302.343 14.6126 298.451 12.215C294.405 9.72244 293.985 7.77218 297.976 5.96368C303.814 3.41525 309.883 1.43385 316.1 0.0468186C317.644 -0.319286 320.587 1.53739 321.562 3.16559C323.856 7.35457 325.888 11.6813 327.647 16.121C328.473 18.0025 328.993 20.0284 329.886 21.8755C330.09 22.2419 330.379 22.5541 330.728 22.7862C331.077 23.0182 331.476 23.1632 331.893 23.2091C332.434 23.1513 333.269 21.9773 333.261 21.3084C333.195 17.434 333.659 13.3257 332.534 9.74722C330.883 4.48549 332.555 3.09953 337.704 2.93437C343.193 2.80729 348.681 3.23939 354.082 4.22399C355.763 4.51715 357.823 6.9161 358.335 8.73699C359.351 12.4935 359.877 16.3655 359.901 20.2569C360.075 33.7739 359.968 47.295 359.968 60.8133H359.919Z" fill="white" fill-opacity="0.05"/>
<path d="M105.523 1.689C108.01 2.478 111.077 3.363 114.08 4.429C116.98 5.458 118.549 7.356 118.189 10.729C117.853 13.872 117.522 16.711 113.77 17.685C108.47 19.062 103.278 20.941 97.919 21.985C93.713 22.804 89.831 21.776 88.583 16.741C87.11 10.794 89.252 5.656 94.391 3.941C97.677 2.837 101.226 2.523 105.523 1.689Z" fill="white" fill-opacity="0.05"/>
<path d="M117.189 74.034C111.93 74.404 107.159 73.618 104.031 68.69C101.408 64.558 102.077 60.28 106.614 58.771C111.067 57.2722 115.77 56.6607 120.458 56.971C126.339 57.438 129.108 61.304 128.727 66.348C128.242 72.772 127.343 73.506 119.453 73.922C118.7 73.963 117.944 74 117.189 74.034Z" fill="white" fill-opacity="0.05"/>
<path d="M123.918 26.453C131.082 24.914 135.158 30.223 138.581 36.43C139.788 38.62 139.697 40.423 137.104 42.06C131.099 45.852 120.047 44.66 115.77 38.868C114.095 36.5133 113.322 33.6351 113.592 30.758C114.125 27.222 117.085 26.273 123.918 26.453Z" fill="white" fill-opacity="0.05"/>
<path d="M62.626 52.984C58.9 52.666 55.148 52.523 51.454 51.984C47.225 51.366 43.846 47.084 44.527 43.621C45.162 40.394 50.127 36.587 53.614 37.31C58.9415 38.3427 64.1709 39.8291 69.245 41.753C70.452 42.229 71.045 45.603 70.956 47.6C70.8721 48.5152 70.6021 49.4037 70.1625 50.2109C69.723 51.018 69.1232 51.7269 68.4 52.294C66.884 53.314 64.6 53.194 62.653 53.572L62.626 52.984Z" fill="white" fill-opacity="0.05"/>
<path d="M68.783 0C71.868 0.758 74.501 0.856 76.424 2.075C77.1192 2.67032 77.661 3.42406 78.0039 4.27266C78.3467 5.12126 78.4805 6.03985 78.394 6.951C76.916 13.639 63.494 19.366 57.754 15.597C55.574 14.166 53.964 11.175 53.235 8.575C52.956 7.581 55.612 5.166 57.373 4.319C61.091 2.533 65.1 1.353 68.783 0Z" fill="white" fill-opacity="0.05"/>
<path d="M58.26 76.992C57.807 77.05 56.808 77.184 55.808 77.302C52.887 77.649 48.682 78.945 48.248 75.12C47.918 72.21 50.486 68.814 52.223 65.907C52.868 64.827 54.935 64.694 56.149 63.838C62.01 59.708 64.676 59.718 69.116 65.283C70.752 67.333 72.237 71.174 71.366 73.101C70.425 75.181 66.751 76.277 64.066 77.217C62.525 77.755 60.578 77.127 58.26 76.992Z" fill="white" fill-opacity="0.05"/>
<path d="M8.66403 66C4.70803 65.972 0.61903 66.46 0.0300298 61.062C-0.38197 57.285 3.53003 51.805 7.08703 51.048C8.78703 50.686 10.47 50.289 12.173 49.967C16.833 49.084 21.773 51.35 22.744 54.791C23.666 58.042 19.164 64.347 15.166 65.18C12.974 65.636 10.712 65.751 8.66403 66Z" fill="white" fill-opacity="0.05"/>
<path d="M96.675 35.571C98.953 36.416 101.504 36.86 103.454 38.187C107.8 41.146 107.354 44.862 102.669 47.275C101.304 47.8216 100.01 48.53 98.814 49.385C95.914 51.95 92.77 53.422 89.356 50.852C86.756 48.894 83.985 46.194 85.819 42.599C87.613 39.081 90.138 35.715 94.961 35.993C95.461 36.022 95.961 36.093 96.461 36.138L96.675 35.571Z" fill="white" fill-opacity="0.05"/>
<path d="M17.067 29.484C22.836 29.358 27.222 31.737 27.382 35.076C27.582 39.358 21.593 45.199 16.838 45.351C13.816 45.451 6.18898 38.919 6.13798 36.192C6.06998 32.571 10.88 29.619 17.067 29.484Z" fill="white" fill-opacity="0.05"/>
<path d="M34.656 26.463C28.985 26.508 25.992 23.674 26.045 18.31C26.093 13.515 29.14 10.71 34.351 10.657C39.756 10.605 45.88 14.276 45.659 17.436C45.438 20.596 38.325 26.433 34.656 26.463Z" fill="white" fill-opacity="0.05"/>
<path d="M80.839 27.451C80.731 32.871 77.831 36.628 73.864 36.487C70.171 36.356 62.964 31.269 62.919 28.758C62.854 25.433 70.251 18.258 73.555 18.437C77.392 18.649 80.927 23.023 80.839 27.451Z" fill="white" fill-opacity="0.05"/>
<path d="M93.9 79.235C92.4 79.235 90.783 79.667 89.594 79.135C87.705 78.29 85.417 77.126 84.632 75.466C84.132 74.416 85.742 71.934 86.954 70.588C91.266 65.797 94.854 65.939 96.477 70.778C96.5754 71.2008 96.5766 71.6405 96.4805 72.0638C96.3843 72.4872 96.1934 72.8832 95.922 73.222C93.653 75.476 93.194 76.465 93.9 79.235Z" fill="white" fill-opacity="0.05"/>
</svg>
