<svg width="140" height="184" viewBox="0 0 140 184" fill="none" xmlns="http://www.w3.org/2000/svg">
<g clip-path="url(#clip0)">
<path d="M57.781 73.028C50.374 65.745 49.581 56.235 56.036 48.628C58.387 45.857 61.358 43.616 63.99 41.076C65.245 39.864 66.368 38.516 67.605 37.171C62.374 33.571 61.074 34.171 47.79 45.719C44.243 39.891 44.209 37.302 50.641 31.135C54.367 27.563 59.723 25.69 64.717 22.841C62.732 20.579 59.985 17.793 57.655 14.692C55.5 11.829 51.628 9.514 53.216 3.938L67.557 22.661C72.459 10.1 79.49 1.56 92.011 0.0489991C95.222 -0.339001 98.724 1.684 102.093 2.6L102.182 4.354C100.65 5.422 99.173 6.582 97.577 7.542C94.8239 9.12862 92.4151 11.2488 90.4919 13.7784C88.5687 16.3079 87.1697 19.1959 86.377 22.273C86.1962 23.3111 86.2594 24.3771 86.5618 25.3865C86.8641 26.396 87.3973 27.3212 88.119 28.089C89.136 28.926 92.526 28.369 93.681 27.233C96.0334 24.6916 98.0499 21.8588 99.681 18.804C101.788 15.239 103.574 11.485 105.411 7.982C111.621 7.828 120.863 13.711 122.068 19.027C122.404 20.511 120.621 23.158 119.083 24.244C115.713 26.625 111.783 28.191 108.277 30.411C106.601 31.6393 105.322 33.3317 104.598 35.279C113.913 36.379 119.308 28.679 127.877 25.597C129.422 29.377 131.233 33.002 132.377 36.827C133.577 40.837 131.96 43.427 127.592 44.472C122.582 45.672 117.668 47.293 112.766 48.899C111.099 49.5112 109.607 50.5223 108.42 51.844C118.688 53.244 128.904 46.132 139.271 51.73C137.982 55.53 137.292 58.862 135.717 61.701C135.151 62.5416 134.424 63.262 133.579 63.8209C132.734 64.3799 131.786 64.7663 130.791 64.958C127.545 65.505 124.149 65.103 120.821 65.24C118.897 65.4464 116.984 65.7494 115.09 66.148C120.633 71.778 126.79 71.337 132.838 72.096C133.576 77.91 134.301 83.617 135.165 90.425C128.112 91.97 120.971 94.425 113.719 94.815C108.683 95.087 106.672 89.843 105.799 85.24C105.428 82.4678 105.225 79.6757 105.191 76.879C99.246 77.743 98.97 78.797 100.373 95.579C94.895 93.13 89.752 91 84.773 88.544C81.648 87.005 82.067 84.256 83.358 81.644C85.09 78.144 86.952 74.7 89.324 70.144C83.094 70.533 80.715 74.089 78.971 77.844C77.249 81.552 76.281 85.61 74.988 89.499C67.46 88.128 63.649 82.784 64.937 75.68C66.182 68.808 68.785 62.616 73.583 57.429C74.415 56.4063 75.1803 55.3311 75.874 54.21C68.105 52.043 64.017 56.414 57.781 73.028Z" fill="white" fill-opacity="0.05"/>
<path d="M82.48 112.371C89.501 120.026 89.8 129.564 82.964 136.824C80.472 139.469 77.39 141.554 74.63 143.955C73.314 145.1 72.123 146.389 70.818 147.668C75.856 151.536 77.185 151.005 91.048 140.154C94.289 146.154 94.19 148.745 87.448 154.571C83.542 157.947 78.097 159.54 72.963 162.128C74.828 164.489 77.428 167.413 79.595 170.628C81.595 173.604 85.346 176.116 83.473 181.602L70.117 162.166C64.573 174.466 57.111 182.623 44.529 183.486C41.302 183.707 37.909 181.506 34.592 180.417V178.661C36.177 177.674 37.712 176.592 39.356 175.715C42.1873 174.273 44.7021 172.28 46.7531 169.853C48.8041 167.426 50.35 164.614 51.3 161.582C51.5345 160.554 51.5265 159.486 51.2768 158.462C51.027 157.438 50.5423 156.486 49.861 155.682C48.888 154.795 45.474 155.175 44.261 156.25C41.7815 158.667 39.6225 161.392 37.837 164.359C35.549 167.81 33.571 171.467 31.556 174.87C25.347 174.703 16.42 168.352 15.492 162.98C15.232 161.48 17.15 158.929 18.741 157.924C22.23 155.724 26.241 154.36 29.851 152.324C31.5879 151.184 32.9528 149.56 33.777 147.653C24.532 146.068 18.746 153.481 10.029 156.12C8.682 152.265 7.06 148.551 6.116 144.673C5.126 140.607 6.873 138.102 11.289 137.285C16.354 136.349 21.346 134.98 26.323 133.63C28.0197 133.104 29.5621 132.171 30.816 130.913C20.635 128.98 10.065 135.56 0 129.434C1.484 125.703 2.345 122.414 4.064 119.66C4.67247 118.849 5.43524 118.167 6.30844 117.652C7.18164 117.137 8.14803 116.8 9.152 116.66C12.421 116.281 15.793 116.86 19.123 116.892C21.0554 116.786 22.9812 116.582 24.893 116.281C19.648 110.373 13.478 110.496 7.476 109.426C7.039 103.583 6.61 97.846 6.1 91C13.223 89.822 20.481 87.74 27.744 87.723C32.788 87.712 34.525 93.052 35.159 97.694C35.3872 100.482 35.4459 103.28 35.335 106.075C41.316 105.52 41.646 104.482 41.112 87.647C46.457 90.374 51.483 92.768 56.332 95.477C59.373 97.177 58.813 99.9 57.389 102.441C55.478 105.851 53.441 109.19 50.838 113.614C57.079 113.547 59.638 110.114 61.574 106.462C63.485 102.848 64.661 98.845 66.153 95.028C73.595 96.789 77.125 102.328 75.473 109.351C73.873 116.151 70.955 122.199 65.896 127.131C65.012 128.111 64.192 129.146 63.441 130.231C71.086 132.795 75.394 128.641 82.48 112.371Z" fill="white" fill-opacity="0.05"/>
</g>
<defs>
<clipPath id="clip0">
<rect width="139.27" height="183.501" fill="white"/>
</clipPath>
</defs>
</svg>
