<svg width="210" height="200" viewBox="0 0 210 200" fill="none" xmlns="http://www.w3.org/2000/svg">
<g clip-path="url(#clip0)">
<path d="M83.7996 93.1056C78.1244 92.6248 72.2176 92.9857 66.8307 91.4639C59.0196 89.2552 56.8325 78.3655 63.6618 72.7577C70.9503 66.7714 79.2611 61.9366 87.5112 57.2809C89.7105 56.0392 93.6914 56.5429 96.1075 57.7456C97.1647 58.2721 96.8468 62.6962 96.2314 65.1163C95.4638 67.4468 94.2107 69.5881 92.5548 71.3988C89.2229 75.4485 86.3476 79.1722 88.8553 85.0871C90.5239 89.0196 89.4788 92.7271 83.7996 93.1056Z" fill="white" fill-opacity="0.05"/>
<path d="M71.485 0C74.2822 0.615461 77.2558 0.822859 79.8348 1.93527C84.8851 4.11025 85.7605 7.72625 82.3936 12.2163C77.5119 18.4102 73.9188 25.5182 71.8257 33.1217C71.3065 34.5428 70.4791 35.8314 69.4029 36.8948C68.3266 37.9582 67.0283 38.7701 65.6011 39.2723C63.8665 39.7517 60.773 37.065 58.9819 35.1459C57.0042 32.7236 55.2976 30.0921 53.8925 27.2984C48.8113 18.5945 48.8975 18.0315 55.7685 10.5261C64.9614 0.48348 64.9614 0.48348 71.485 0Z" fill="white" fill-opacity="0.05"/>
<path d="M64.6624 117.061C67.6252 119.297 71.9537 121.057 73.4809 124.187C74.7549 126.796 73.0526 131.096 72.0991 134.487C71.1375 137.904 65.5001 139.782 68.8414 144.857C69.1444 145.316 66.8212 148.322 65.2052 149.095C55.9813 153.524 49.4483 147.373 44.1718 141.779C41.3234 138.759 41.714 132.572 40.9908 127.761C41.0606 127.115 41.2894 126.497 41.6567 125.96C42.024 125.424 42.5184 124.988 43.0957 124.689C49.7082 122.176 56.419 119.937 64.6624 117.061Z" fill="white" fill-opacity="0.05"/>
<path d="M109.203 179.871C108.473 185.796 106.351 189.336 99.9012 190.456C95.4152 191.236 91.507 195.194 86.3786 192.611C84.8528 191.845 83.0225 191.566 81.6798 190.591C80.3937 189.648 79.6894 187.126 78.5056 186.967C71.085 185.97 69.7518 179.199 66.6987 174.457C63.7682 169.903 66.4792 166.399 71.9779 166.048C75.0418 165.852 78.1595 164.566 81.1048 164.938C85.0575 165.44 91.2228 166.03 92.2827 168.422C95.1405 174.874 100.334 176.204 105.797 178.019C106.986 178.531 108.127 179.151 109.203 179.871Z" fill="white" fill-opacity="0.05"/>
<path d="M132.923 17.3097C134.888 18.5042 137.562 19.2301 138.158 20.7641C138.685 22.1108 136.803 24.3383 136.138 26.2305C134.572 30.6747 133.069 35.1472 131.593 39.6265C129.707 45.3596 128.196 51.2502 125.88 56.8028C124.417 60.3044 121.336 61.7696 117.867 58.7233C114.869 56.0918 111.913 53.3929 109.153 50.5176C104.689 45.8606 106.162 33.1904 112.466 30.975C118.412 28.8862 121.797 24.5646 126.234 21.0913C128.368 19.6684 130.604 18.4045 132.923 17.3097V17.3097Z" fill="white" fill-opacity="0.05"/>
<path d="M39.7544 103.733C37.1498 108.177 35.1755 111.841 32.8982 115.305C31.4224 117.545 29.6925 119.607 27.7429 121.449C25.6366 123.429 22.7599 126.805 20.9445 126.396C17.3821 125.523 14.2795 123.34 12.2553 120.281C9.73963 115.903 4.57892 112.049 8.24475 105.308C11.2709 99.741 27.2688 90.6114 32.6746 93.6537C35.8233 95.4233 37.3263 100.092 39.7544 103.733Z" fill="white" fill-opacity="0.05"/>
<path d="M96.9209 133.671C97.7815 128.316 97.8636 124.431 99.1094 120.962C100.503 117.083 104.053 116.707 107.377 118.546C109.471 119.813 111.338 121.423 112.899 123.309C115.727 126.51 118.151 129.293 123.403 128.8C125.72 128.581 129.24 131.839 130.596 134.382C131.356 135.808 129.41 139.634 127.652 141.281C118.908 149.468 108.259 152.079 101.504 142.697C99.7056 139.833 98.1716 136.812 96.9209 133.671V133.671Z" fill="white" fill-opacity="0.05"/>
<path d="M169.572 144.014C167.148 144.581 163.904 144.365 162.46 145.872C158.976 149.508 156.338 149.445 152.964 146.022C149.328 142.332 149.527 138.423 152.034 134.502C153.938 131.52 156.545 128.995 158.529 126.058C164.028 117.921 171.511 115.708 179.783 120.25C180.878 120.852 182.148 123.071 181.818 124C180.256 128.392 178.234 132.63 176.241 136.857C174.745 140.031 173.043 143.107 171.432 146.226L169.572 144.014Z" fill="white" fill-opacity="0.05"/>
<path d="M27.4546 162.468C27.6944 168.765 19.5412 177.657 13.3516 177.851C8.572 178 0.412096 168.423 0.0296212 162.215C-0.417497 154.929 4.16277 149.976 11.5954 149.709C19.688 149.42 27.1893 155.454 27.4546 162.468Z" fill="white" fill-opacity="0.05"/>
<path d="M119.146 81.7216C125.19 83.2932 131.006 84.4393 136.526 86.4109C138.879 87.2513 142.015 89.6431 142.26 91.6417C142.53 93.8907 140.01 96.5236 138.593 98.9248C137.619 100.576 136.266 102.022 135.417 103.725C132.156 110.278 125.221 111.866 120.158 106.542C111.443 97.3774 109.864 92.1723 119.146 81.7216Z" fill="white" fill-opacity="0.05"/>
<path d="M161.711 186.8C154.248 187.601 150.782 182.015 148.96 177.36C147.715 174.177 150.633 169.069 152.427 165.158C152.999 163.908 156.05 162.961 157.761 163.222C163.08 163.911 168.32 165.113 173.408 166.809C179.254 168.914 179.848 173.828 175.253 177.948C171.099 181.675 168.625 188.052 161.711 186.8Z" fill="white" fill-opacity="0.05"/>
<path d="M179.429 80.1149C176.784 81.2448 173.472 83.9491 171.765 83.1653C164.547 79.8496 155.496 80.2725 150.329 72.4829C147.271 67.8757 147.635 65.0516 152.86 62.9898C153.681 62.6665 154.788 62.6962 155.347 62.144C159.014 58.5199 162.716 56.0473 167.162 60.9858C170.118 64.0107 172.887 67.2134 175.453 70.576C177.056 72.8668 177.701 75.8282 179.429 80.1149Z" fill="white" fill-opacity="0.05"/>
<path d="M29.6525 66.2596C30.0471 55.0063 34.5102 47.9305 40.8305 45.9131C44.6539 44.6916 47.1454 46.1649 46.4222 49.7661C45.0084 56.7013 42.9974 63.5012 40.4117 70.0898C39.9147 71.3665 35.2442 72.4089 33.6227 71.5173C31.3952 70.2891 30.2424 67.1148 29.6525 66.2596Z" fill="white" fill-opacity="0.05"/>
<path d="M209.838 186.802C209.973 193.113 205.576 199.604 201.77 199.462C197.148 199.295 191.265 194.057 191.251 190.095C191.224 183.219 195.504 178.737 202.429 178.665C208.364 178.609 210.664 181.83 209.838 186.802Z" fill="white" fill-opacity="0.05"/>
</g>
<defs>
<clipPath id="clip0">
<rect width="210" height="199.468" fill="white"/>
</clipPath>
</defs>
</svg>
