<svg width="360" height="117" viewBox="0 0 360 117" fill="none" xmlns="http://www.w3.org/2000/svg">
<path d="M359.919 60.8133C359.919 74.7886 360.029 88.7667 359.881 102.742C359.786 111.625 357.332 114.373 348.582 114.909C317.935 116.912 287.185 116.779 256.555 114.511C253.527 114.276 249.16 114.744 249.148 110.335C249.137 106.41 253.181 106.703 256.072 106.415C260.399 105.986 264.827 106.113 269.055 105.243C275.477 103.921 281.781 102.008 288.087 100.179C288.913 99.9411 289.437 98.7052 290.102 97.9317C289.1 97.59 288.051 97.4066 286.993 97.388C273.667 99.3287 260.548 98.05 247.388 95.5988C242.832 94.762 241.637 93.0732 242.491 88.8025C242.928 86.1096 243.077 83.3777 242.935 80.6532C242.855 76.3686 243.21 76.0369 247.555 77.5784C261.044 82.3612 274.599 81.3207 288.181 78.129C288.948 77.8166 289.665 77.3907 290.306 76.8655C289.643 76.309 288.892 75.8684 288.083 75.5621C284.034 74.8189 279.979 74.0344 275.89 73.6105C266.806 72.6704 259.546 67.9675 252.653 62.5585C248.14 59.0145 248.078 57.879 251.002 52.7576C252.706 49.7765 254.385 46.7816 256.074 43.7922C259.404 37.8932 259.556 37.8932 263.932 42.8701C271.524 51.5325 281.295 58.0054 292.233 61.6171C294.829 62.4976 297.541 62.9915 300.281 63.0829C301.899 63.1283 304.332 62.4278 304.961 61.2771C305.575 60.1513 304.793 57.7413 303.886 56.3925C299.427 49.9416 293.268 44.8522 286.093 41.6892C279.887 38.8126 273.316 36.7192 266.861 34.4084C261.59 32.52 260.833 31.1671 264.212 26.6734C267.471 21.9693 271.341 17.7204 275.722 14.0386C278.176 12.1489 282.619 11.8365 285.957 12.2948C295.892 13.678 303.662 19.4641 310.593 26.3238C314.001 29.6958 316.936 33.5413 320.161 37.1032C320.843 37.6482 321.604 38.0851 322.418 38.3984C322.556 37.3785 323.086 36.2155 322.773 35.3594C320.331 28.6691 315.578 23.6771 310.074 19.482C306.456 16.7294 302.343 14.6126 298.451 12.215C294.405 9.72244 293.985 7.77218 297.976 5.96368C303.814 3.41525 309.883 1.43385 316.1 0.0468186C317.644 -0.319286 320.587 1.53739 321.562 3.16559C323.856 7.35457 325.888 11.6813 327.647 16.121C328.473 18.0025 328.993 20.0284 329.886 21.8755C330.09 22.2419 330.379 22.5541 330.728 22.7862C331.077 23.0182 331.476 23.1632 331.893 23.2091C332.434 23.1513 333.269 21.9773 333.261 21.3084C333.195 17.434 333.659 13.3257 332.534 9.74722C330.883 4.48549 332.555 3.09953 337.704 2.93437C343.193 2.80729 348.681 3.23939 354.082 4.22399C355.763 4.51715 357.823 6.9161 358.335 8.73699C359.351 12.4935 359.877 16.3655 359.901 20.2569C360.075 33.7739 359.968 47.295 359.968 60.8133H359.919Z" fill="white" fill-opacity="0.05"/>
<path d="M172.086 36.8005C170.62 47.1298 170.159 54.9557 165.387 61.5937C164.802 62.4099 164.086 64.1881 164.337 64.3877C167.728 67.1018 163.796 68.6681 163.713 70.2908C163.229 79.9141 150.172 83.8133 153.059 94.7248C153.356 95.852 151.414 98.09 149.995 99.0534C146.296 101.571 140.54 101.476 139.948 107.903C139.878 108.668 136.085 109.219 133.971 109.629C132.393 109.935 130.637 109.53 129.144 110.01C126.27 110.935 122.972 113.856 120.839 113.111C115.469 111.323 110.488 108.529 106.163 104.877C101.654 100.654 97.7759 95.8041 94.6489 90.4761C91.9458 86.1145 85.5651 84.6198 84.3264 85.7966C78.6903 91.1766 74.1333 85.6975 69.2184 85.7966C65.8514 85.8933 62.5483 86.7396 59.5497 88.274C54.0127 91.1519 49.3648 88.3854 45.4808 85.8048C33.8989 78.118 21.8299 70.9184 14.9799 57.7606C12.636 53.2642 7.98258 50.0009 4.63946 45.9586C2.96898 44.126 1.76133 41.9202 1.11743 39.5256C0.330163 35.4448 -2.20229 30.4707 4.59267 28.4021C5.67309 28.0731 6.15343 25.8586 6.9696 24.5483C10.7256 18.5503 13.6889 17.5483 20.0943 20.9203C24.1545 23.0591 26.4406 23.1321 28.3977 18.2089C29.2524 16.0591 32.5267 14.6305 34.978 13.411C38.617 11.586 42.3386 10.5799 43.5746 5.60447C44.9234 0.151441 50.342 -1.74102 54.8646 1.80579C60.7457 6.41926 65.9042 11.9631 71.3118 17.1698C74.7526 20.4799 77.8177 24.2318 81.5366 27.173C84.2548 29.3228 87.214 28.7737 88.3439 24.8332C89.6294 20.3519 92.327 18.8806 96.189 21.5631C98.6485 23.2697 99.4853 23.3454 101.665 21.1653C104.831 17.9997 111.808 19.6307 116.48 22.8031C120.749 25.6693 125.393 27.9332 130.281 29.5307C132.122 30.1376 135.043 28.4764 137.098 27.2308C142.443 24.2346 147.545 20.8261 152.36 17.0363C156.938 13.1647 161.361 16.377 162.861 18.5723C167.077 24.7369 169.749 31.9516 172.086 36.8005Z" fill="white" fill-opacity="0.05"/>
</svg>
