<svg width="360" height="116" viewBox="0 0 360 116" fill="none" xmlns="http://www.w3.org/2000/svg">
<g clip-path="url(#clip0)">
<path d="M56.0642 35.7372C63.9277 29.0098 69.8114 23.2155 76.5358 18.6619C78.6687 17.2183 83.2829 18.4332 86.3369 19.5708C92.4068 21.8355 98.0708 25.1833 104.144 27.4329C105.925 28.0933 108.588 26.7512 110.73 25.9953C118.541 23.2413 127.75 16.2654 133.762 18.3998C144.587 22.2415 152.192 32.2516 151.28 45.7731C150.88 51.681 150.583 57.6222 150.742 63.5347C150.85 65.9462 151.702 68.2653 153.179 70.1742C167.543 87.7146 172.994 107.439 165.813 129.155C163.897 134.954 157.297 139.175 152.952 144.212C150.756 146.76 148.015 149.211 146.872 152.224C143.189 161.919 144.328 174.273 131.019 178.296C129.511 178.751 128.833 181.955 127.603 184.188C127.289 182.673 127.045 181.487 126.8 180.305C117.267 201.664 113.739 204.433 83.8828 198.506C64.7094 194.699 46.1874 186.879 27.929 179.484C17.4477 175.242 12.5866 161.322 16.4979 150.537C19.1913 143.114 18.3794 136.661 12.6093 131.992C-4.9856 117.752 -1.94833 87.2026 8.24052 73.2691C15.1194 63.8634 16.3465 54.1275 19.7033 44.3991C24.2009 31.3715 38.4405 26.2619 50.5759 33.465C52.3166 34.4211 54.1571 35.1831 56.0642 35.7372V35.7372Z" fill="white" fill-opacity="0.05"/>
<path d="M423.171 1.07636C428.604 13.6284 423.111 18.7849 414.569 24.7913C407.808 29.5448 402.571 37.8098 399.07 45.6007C389.734 66.3753 374.227 76.8216 351.904 74.4903C337.673 73.0042 326.026 78.3834 313.656 83.1431C300.593 88.1678 287.841 89.8705 277.416 77.0231C269.261 66.9736 257.962 69.2701 247.284 70.7335C237.286 72.0968 233.307 68.0249 235.656 57.9588C238.86 44.2328 249.29 37.0539 260.904 31.9035C285.899 20.8118 311.239 10.4775 336.471 -0.0855284C352.26 -6.69631 367.602 -4.25135 382.849 2.1731C392.225 6.12231 401.553 6.98274 411.262 1.92316C414.747 0.108372 419.763 1.24299 423.171 1.07636Z" fill="white" fill-opacity="0.05"/>
</g>
<defs>
<clipPath id="clip0">
<rect width="360" height="116" fill="white"/>
</clipPath>
</defs>
</svg>
