<svg width="250" height="151" viewBox="0 0 250 151" fill="none" xmlns="http://www.w3.org/2000/svg">
<path d="M247.7 129.8H2.8C2.1 129.8 1.5 129.2 1.5 128.5V119.7C1.5 119 2.1 118.4 2.8 118.4H247.6C248.3 118.4 248.9 119 248.9 119.7V128.5C249 129.2 248.4 129.8 247.7 129.8Z" stroke="url(#paint0_linear)" stroke-width="2" stroke-miterlimit="10"/>
<path d="M174.7 148.8H2.8C2.1 148.8 1.5 148.2 1.5 147.5V138.7C1.5 138 2.1 137.4 2.8 137.4H174.6C175.3 137.4 175.9 138 175.9 138.7V147.5C176 148.2 175.4 148.8 174.7 148.8Z" stroke="url(#paint1_linear)" stroke-width="2" stroke-miterlimit="10"/>
<path d="M55 74.3L49.6 56.7H22.6L17.2 74.3H0.400024L26.6 0H45.8L72 74.3H55ZM45.9 43.5C40.9 27.5 38.1 18.5 37.5 16.4C36.9 14.3 36.4 12.7 36.2 11.4C35.1 15.7 31.9 26.4 26.6 43.4H45.9V43.5Z" fill="#008060"/>
<path d="M116 74.3L113 66.6H112.6C110 69.9 107.3 72.1 104.6 73.4C101.9 74.7 98.3 75.3 93.8 75.3C88.4 75.3 84.1 73.7 81 70.6C77.9 67.5 76.3 63.1 76.3 57.3C76.3 51.3 78.4 46.9 82.6 44C86.8 41.1 93.1 39.6 101.6 39.3L111.4 39V36.5C111.4 30.8 108.5 27.9 102.6 27.9C98.1 27.9 92.8 29.3 86.7 32L81.6 21.6C88.1 18.2 95.3 16.5 103.3 16.5C110.9 16.5 116.7 18.2 120.8 21.5C124.8 24.8 126.9 29.8 126.9 36.6V74.3H116V74.3ZM111.4 48.1L105.4 48.3C100.9 48.4 97.6 49.2 95.4 50.7C93.2 52.2 92.1 54.4 92.1 57.5C92.1 61.9 94.6 64 99.6 64C103.2 64 106 63 108.2 60.9C110.3 58.8 111.4 56.1 111.4 52.7V48.1Z" fill="#008060"/>
<path opacity="0.3" d="M248.3 75.2H226.9C226.3 75.2 225.8 74.7 225.8 74.1V52.6C225.8 52 226.3 51.5 226.9 51.5H248.3C248.9 51.5 249.4 52 249.4 52.6V74C249.4 74.7 248.9 75.2 248.3 75.2Z" fill="#008060"/>
<path opacity="0.6" d="M243.2 70.7H223.2C222.3 70.7 221.5 70 221.5 69V49C221.5 48.1 222.2 47.3 223.2 47.3H243.2C244.1 47.3 244.9 48 244.9 49V69C244.8 70 244.1 70.7 243.2 70.7Z" fill="#008060"/>
<path opacity="0.3" d="M237.2 63.9H231.5C231.1 63.9 230.7 63.5 230.7 63.1V57.4C230.7 57 231.1 56.6 231.5 56.6H237.2C237.6 56.6 238 57 238 57.4V63.1C238.1 63.5 237.7 63.9 237.2 63.9Z" fill="white"/>
<path opacity="0.6" d="M234.8 61.5H229.1C228.7 61.5 228.3 61.1 228.3 60.7V55C228.3 54.6 228.7 54.2 229.1 54.2H234.8C235.2 54.2 235.6 54.6 235.6 55V60.7C235.6 61.1 235.3 61.5 234.8 61.5Z" fill="white"/>
<path opacity="0.4" d="M190.3 74.3C197.645 74.3 203.6 68.3453 203.6 61C203.6 53.6546 197.645 47.7 190.3 47.7C182.955 47.7 177 53.6546 177 61C177 68.3453 182.955 74.3 190.3 74.3Z" stroke="#008060" stroke-width="2" stroke-miterlimit="10" stroke-linecap="round" stroke-linejoin="round"/>
<path opacity="0.3" d="M191.5 68C194.538 68 197 65.5376 197 62.5C197 59.4624 194.538 57 191.5 57C188.462 57 186 59.4624 186 62.5C186 65.5376 188.462 68 191.5 68Z" fill="#008060"/>
<path opacity="0.4" d="M189.1 64.9C192.138 64.9 194.6 62.4376 194.6 59.4C194.6 56.3625 192.138 53.9 189.1 53.9C186.062 53.9 183.6 56.3625 183.6 59.4C183.6 62.4376 186.062 64.9 189.1 64.9Z" fill="#008060"/>
<path opacity="0.9" d="M220.1 26.2L233.6 2.89998C233.8 2.49998 234.4 2.49998 234.7 2.89998L248.2 26.2C248.4 26.6 248.2 27.1 247.7 27.1H220.8C220.2 27.2 219.9 26.6 220.1 26.2Z" stroke="#008060" stroke-width="2" stroke-miterlimit="10" stroke-linecap="round" stroke-linejoin="round"/>
<path opacity="0.3" d="M232.5 22.3L236.5 15.4C236.6 15.2 237 15.2 237.1 15.4L241.1 22.3C241.2 22.5 241.1 22.8 240.8 22.8H232.7C232.5 22.8 232.4 22.5 232.5 22.3Z" fill="#008060"/>
<path opacity="0.9" d="M227.9 22.1L232.8 13.6C233 13.3 233.4 13.3 233.6 13.6L238.5 22.1C238.7 22.4 238.4 22.8 238.1 22.8H228.3C228 22.8 227.8 22.5 227.9 22.1Z" fill="#008060"/>
<defs>
<linearGradient id="paint0_linear" x1="0.5" y1="124.084" x2="250" y2="124.084" gradientUnits="userSpaceOnUse">
<stop stop-color="#008060"/>
<stop offset="1" stop-color="white" stop-opacity="0"/>
</linearGradient>
<linearGradient id="paint1_linear" x1="0.5" y1="143.084" x2="177" y2="143.084" gradientUnits="userSpaceOnUse">
<stop stop-color="#008060"/>
<stop offset="1" stop-color="white" stop-opacity="0"/>
</linearGradient>
</defs>
</svg>
