<svg width="430" height="300" viewBox="0 0 430 300" fill="none" xmlns="http://www.w3.org/2000/svg">
<path d="M53.187 3L137.187 72M79.687 81L117.187 99M3.18701 131.5C44.1921 131.5 67.182 131.5 108.187 131.5M76.187 185.5L117.187 173M31.687 260L137.187 202" stroke="#223B41" stroke-width="5" stroke-linecap="round"/>
<path d="M269.187 135C269.187 158.131 263.997 178.948 255.733 193.894C247.421 208.927 236.339 217.5 224.687 217.5C213.035 217.5 201.953 208.927 193.641 193.894C185.377 178.948 180.187 158.131 180.187 135C180.187 111.869 185.377 91.0516 193.641 76.1057C201.953 61.0725 213.035 52.5 224.687 52.5C236.339 52.5 247.421 61.0725 255.733 76.1057C263.997 91.0516 269.187 111.869 269.187 135Z" stroke="#223B41" stroke-width="5"/>
<ellipse cx="220.687" cy="135" rx="8" ry="15" fill="#223B41"/>
<path d="M407.687 150C410.887 140.4 409.02 126.333 407.687 120.5L423.187 126C429.587 133.6 425.854 141.167 423.187 144L407.687 150Z" fill="#223B41"/>
<path d="M423.187 126L225.187 52M238.187 213.5L423.187 144" stroke="#223B41" stroke-width="5" stroke-linecap="round"/>
<path d="M220.187 123L266.187 108.5M220.187 147L266.187 163.5" stroke="#223B41" stroke-width="5" stroke-linecap="round"/>
<path d="M342.187 272.5C330.687 275.5 321.687 271 320.187 268.5C319.747 271.694 317.825 282.082 319.687 289C320.643 292.552 323.473 294.822 326.187 295.5C328.925 296.185 332.865 295.486 335.187 292.5C339.65 286.761 341.639 275.789 342.187 272.5Z" fill="#223B41"/>
<path d="M329.187 180L319.687 271C318.975 281.5 315.187 293 325.187 296C337.397 299.663 338.687 288.5 341.187 277L351.687 222L361.687 167.5" stroke="#223B41" stroke-width="5" stroke-linecap="round"/>
<path d="M423.187 126C425.687 128.833 429.187 136.4 423.187 144" stroke="#223B41" stroke-width="5" stroke-linecap="round"/>
<path d="M406.687 120C408.52 125.833 410.187 139 406.687 150" stroke="#223B41" stroke-width="5" stroke-linecap="round"/>
</svg>
