<svg width="1162" height="684" viewBox="0 0 1162 684" fill="none" xmlns="http://www.w3.org/2000/svg">
<rect x="544" y="25" width="613" height="385" rx="15" stroke="#223B41" stroke-width="10"/>
<circle cx="604" cy="85" r="15" fill="#223B41"/>
<path d="M1015 338H1112M1048.82 365H1112" stroke="#223B41" stroke-width="10" stroke-linecap="round"/>
<rect x="8" y="607" width="362" height="19" rx="9.5" fill="#223B41"/>
<rect x="8" y="665" width="596" height="19" rx="9.5" fill="#223B41"/>
<rect x="8" y="549" width="130" height="19" rx="9.5" fill="#223B41"/>
<path d="M589 348L675.948 203.157C679.352 197.488 687.222 196.624 691.775 201.42L753.327 266.264C757.496 270.656 764.582 270.364 768.375 265.642L870.528 138.494C874.443 133.621 881.818 133.494 885.899 138.229L951.252 214.062C955.461 218.946 963.124 218.629 966.916 213.413L1037 117" stroke="#223B41" stroke-width="25" stroke-linecap="round"/>
<path d="M1073.89 56.82C1077.38 55.1871 1081.33 57.9397 1081 61.7746L1075.13 130.292C1074.8 134.127 1070.44 136.168 1067.28 133.966L1010.88 94.6231C1007.72 92.4211 1008.14 87.6274 1011.62 85.9945L1073.89 56.82Z" fill="#223B41"/>
<path d="M168 12.7572C182.171 9.64198 196.894 8 212 8C324.666 8 416 99.3339 416 212C416 324.666 324.666 416 212 416C99.3339 416 8 324.666 8 212C8 198.662 9.27999 185.624 11.7238 173" stroke="#223B41" stroke-opacity="0.3" stroke-width="15" stroke-linecap="round"/>
<path d="M193.019 312V325.775C192.725 330.367 195.669 339.729 209.803 340.44C227.469 341.328 256.619 341.773 271.195 336.885C282.855 332.974 283.708 320.739 282.678 315.111" stroke="#223B41" stroke-width="5" stroke-linecap="round"/>
<path d="M190.664 312.7C165.96 293.747 158.902 275.676 150.961 257.605C142.087 256.085 137.491 254.254 134.198 252.316C131.762 250.882 128.463 247.908 127.14 245.264C117.842 226.685 124.052 217.055 129.787 212.206C137.188 205.949 145.756 204.89 181.4 196.78C217.044 188.67 244.777 148.149 254.188 128.903C259.482 153.938 308.742 186.642 332.711 199.865C349.297 167.425 333.74 126.699 323.888 110.391C278.362 40.2217 204.927 51.4758 173.901 65.874C150.079 26.2056 103.171 43.983 92.2899 51.7697C69.6447 68.8125 48.4406 110.567 74.2032 172.979C99.9657 235.391 63.4688 260.102 42 264.657C67.7625 316.138 150.667 318.724 190.664 312.7Z" fill="#223B41"/>
<path d="M142.741 222C140.879 225.923 138.923 234.815 146 239" stroke="#223B41" stroke-width="5" stroke-linecap="round"/>
<path d="M331 200C328.8 231.163 340.682 291.295 277.748 314.557C255.303 322.019 208.741 323.862 184.447 306.657C175.499 300.805 156.281 284.711 151 260.132" stroke="#223B41" stroke-width="5" stroke-linecap="round"/>
<path d="M274 211C274 218.875 277.551 227.859 283.932 235.938C289.116 242.5 283.631 249.208 277.612 253" stroke="#223B41" stroke-width="5" stroke-linecap="round"/>
<ellipse cx="303.5" cy="207" rx="6.5" ry="8" fill="#223B41"/>
<ellipse cx="242.5" cy="213" rx="6.5" ry="8" fill="#223B41"/>
<path d="M297 191C298.75 187.232 304 180.239 311 182.409" stroke="#223B41" stroke-width="5" stroke-linecap="round"/>
<path d="M229 191C232.667 188.228 242.2 184.139 251 189.96" stroke="#223B41" stroke-width="5" stroke-linecap="round"/>
<path d="M246 268C249.15 276.098 255 283.771 273 281.639" stroke="#223B41" stroke-width="5" stroke-linecap="round"/>
</svg>
