<svg width="250" height="150" viewBox="0 0 250 150" fill="none" xmlns="http://www.w3.org/2000/svg">
<g clip-path="url(#clip0)">
<path d="M160.6 70.5H88.3C86.7 70.5 85.5 69.2 85.5 67.7V3.3C85.5 1.7 86.8 0.5 88.3 0.5H160.6C162.2 0.5 163.4 1.8 163.4 3.3V67.6C163.5 69.2 162.2 70.5 160.6 70.5Z" fill="#008060"/>
<path d="M136.5 28.1H114.5C114.1 28.1 113.8 28.5 113.8 29.1V31C113.8 31.5 114.1 32 114.5 32H136.5C136.9 32 137.2 31.6 137.2 31V29.1C137.2 28.5 136.9 28.1 136.5 28.1ZM136.5 20.3H114.5C114.1 20.3 113.8 20.7 113.8 21.3V23.2001C113.8 23.7001 114.1 24.2001 114.5 24.2001H136.5C136.9 24.2001 137.2 23.8001 137.2 23.2001V21.3C137.2 20.8 136.9 20.3 136.5 20.3Z" fill="white"/>
<path d="M114 51.9H113V49.7H111V51.9H109.9V46.9H111V48.9H113V46.9H114.1V51.9H114Z" fill="white"/>
<path d="M118.2 51.9H115.3V46.9H118.2V47.8H116.4V48.9H118.1V49.8H116.4V51H118.2V51.9Z" fill="white"/>
<path d="M122.3 51.9L121.9 50.7H120.1L119.7 51.9H118.6L120.4 46.9H121.7L123.5 51.9H122.3ZM121.7 49.8C121.4 48.7 121.2 48.1 121.1 48C121.1 47.9 121 47.7 121 47.7C120.9 48 120.7 48.7 120.4 49.9H121.7V49.8Z" fill="white"/>
<path d="M128.2 49.3C128.2 50.1 128 50.8 127.5 51.2C127 51.6 126.4 51.9 125.5 51.9H124V46.9H125.6C126.4 46.9 127 47.1 127.5 47.5C128 47.9 128.2 48.5 128.2 49.3ZM127.1 49.3C127.1 48.2 126.6 47.7 125.7 47.7H125.1V51H125.6C126.6 51 127.1 50.4 127.1 49.3Z" fill="white"/>
<path d="M132.1 51.9H129.2V46.9H132.1V47.8H130.3V48.9H132V49.8H130.3V51H132.1V51.9Z" fill="white"/>
<path d="M134.2 49.9001V51.8H133.1V46.8H134.6C135.3 46.8 135.8 46.9001 136.1 47.2001C136.4 47.4001 136.6 47.8 136.6 48.3C136.6 48.6 136.5 48.9 136.4 49.1C136.2 49.3 136 49.5 135.7 49.6C136.5 50.7 136.9 51.4 137.2 51.8H136L134.8 49.9001H134.2ZM134.2 49.1H134.5C134.8 49.1 135.1 49.0001 135.2 48.9001C135.4 48.8001 135.4 48.6001 135.4 48.4001C135.4 48.2001 135.3 48.0001 135.2 47.9001C135.1 47.8001 134.8 47.7001 134.4 47.7001H134.1V49.1H134.2Z" fill="white"/>
<path d="M140.7 50.5C140.7 51 140.5 51.3 140.2 51.6C139.9 51.9 139.4 52 138.8 52C138.3 52 137.8 51.9 137.4 51.7V50.7C137.7 50.9 138 51 138.3 51C138.5 51.1 138.7 51.1 138.9 51.1C139.1 51.1 139.3 51.1 139.4 51C139.5 50.9 139.6 50.8 139.6 50.6C139.6 50.5 139.6 50.4 139.5 50.3C139.4 50.2 139.4 50.2 139.3 50.1C139.2 50 139 49.9 138.7 49.8C138.4 49.7 138.2 49.5 138 49.4C137.8 49.3 137.7 49.1 137.6 48.9C137.5 48.7 137.5 48.5 137.5 48.3C137.5 47.9 137.7 47.5 138 47.3C138.3 47 138.7 46.9 139.2 46.9C139.5 46.9 139.7 46.9 139.9 47C140.1 47.1 140.4 47.1 140.6 47.3L140.3 48.1C140 48 139.8 47.9 139.6 47.9C139.4 47.9 139.3 47.8 139.1 47.8C138.9 47.8 138.7 47.8 138.6 47.9C138.5 48 138.4 48.1 138.4 48.3C138.4 48.4 138.4 48.5 138.5 48.5C138.5 48.6 138.6 48.6 138.7 48.7C138.8 48.8 139 48.9 139.4 49.1C139.9 49.3 140.2 49.5 140.4 49.8C140.6 49.9 140.7 50.2 140.7 50.5Z" fill="white"/>
<path opacity="0.1" d="M75.5 70.5H3.20002C1.60002 70.5 0.400024 69.2 0.400024 67.7V3.3C0.400024 1.7 1.70002 0.5 3.20002 0.5H75.5C77.1 0.5 78.3 1.8 78.3 3.3V67.6C78.4 69.2 77.1 70.5 75.5 70.5Z" fill="#008060"/>
<path opacity="0.1" d="M48.7 14.7H35.9C34.8 14.7 34 15.6 34 16.6V18.5H32.0999C30.9999 18.5 30.2 19.4 30.2 20.4V33.2C30.2 34.3 31.0999 35.0999 32.0999 35.0999H44.9C46 35.0999 46.7999 34.2 46.7999 33.2V31.2999H48.7C49.8 31.2999 50.5999 30.4 50.5999 29.4V16.6C50.5999 15.5 49.8 14.7 48.7 14.7ZM44.5999 33.2H32.2999C32.1999 33.2 32.0999 33.1 32.0999 33V20.7C32.0999 20.6 32.1999 20.5 32.2999 20.5H34V29.5C34 30.6 34.9 31.4 35.9 31.4H44.9V33C44.9 33.1 44.7999 33.2 44.5999 33.2ZM48.5 29.4H36.2C36.1 29.4 36 29.3 36 29.2V16.8C36 16.7 36.1 16.6 36.2 16.6H48.5C48.6 16.6 48.7 16.7 48.7 16.8V29.1C48.7 29.3 48.6 29.4 48.5 29.4Z" fill="#008060"/>
<g opacity="0.1">
<path opacity="0.1" d="M27.8 51.9L26.6 48C26.6 48.8 26.7001 49.3 26.7001 49.6V51.9H25.8V46.9H27.2001L28.4 50.7L29.7001 46.9H31.1V51.9H30.1V49.5C30.1 49.4 30.1 49.3 30.1 49.1C30.1 49 30.1 48.6 30.1 47.9L28.8 51.8H27.8V51.9Z" fill="white"/>
<path opacity="0.1" d="M36.9001 49.4001C36.9001 50.2001 36.7001 50.9 36.3001 51.3C35.9001 51.7 35.3001 52 34.5001 52C33.7001 52 33.1001 51.8 32.7001 51.3C32.3001 50.8 32.1001 50.2001 32.1001 49.4001C32.1001 48.6001 32.3001 47.9 32.7001 47.5C33.1001 47.1 33.7001 46.8 34.5001 46.8C35.3001 46.8 35.9001 47 36.3001 47.5C36.6001 47.9 36.9001 48.5001 36.9001 49.4001ZM33.2001 49.4001C33.2001 50.0001 33.3001 50.4001 33.5001 50.7001C33.7001 51.0001 34.0001 51.1 34.5001 51.1C35.3001 51.1 35.8001 50.5001 35.8001 49.4001C35.8001 48.3001 35.4001 47.7001 34.5001 47.7001C34.1001 47.7001 33.8001 47.8 33.5001 48.1C33.3001 48.4 33.2001 48.8001 33.2001 49.4001Z" fill="white"/>
<path opacity="0.1" d="M42 49.3C42 50.1 41.8 50.8 41.3 51.2C40.8 51.6 40.2 51.9 39.3 51.9H37.9V46.9H39.5C40.3 46.9 40.9 47.1 41.4 47.5C41.9 47.9 42 48.5 42 49.3ZM40.9 49.3C40.9 48.2 40.4 47.7 39.5 47.7H38.9V51H39.4C40.4 51 40.9 50.4 40.9 49.3Z" fill="white"/>
<path opacity="0.1" d="M46.1 51.9L45.7 50.7H43.9L43.5 51.9H42.4L44.2 46.9H45.5L47.3 51.9H46.1ZM45.5 49.8C45.2 48.7 45 48.1 44.9 48C44.9 47.9 44.8 47.7 44.8 47.7C44.7 48 44.5 48.7 44.2 49.9H45.5V49.8Z" fill="white"/>
<path opacity="0.1" d="M47.9 51.9V46.9H49V51H51V51.9H47.9Z" fill="white"/>
<path opacity="0.1" d="M54.8 50.5C54.8 51 54.6 51.3 54.3 51.6C54 51.9 53.5 52 52.9 52C52.4 52 51.9 51.9 51.5 51.7V50.7C51.8 50.9 52.1 51 52.4 51C52.6 51.1 52.8 51.1 53 51.1C53.2 51.1 53.4 51.1 53.5 51C53.6 50.9 53.7 50.8 53.7 50.6C53.7 50.5 53.7 50.4 53.6 50.3C53.5 50.2 53.5 50.2 53.4 50.1C53.3 50 53.1 49.9 52.8 49.8C52.5 49.7 52.3 49.5 52.1 49.4C51.9 49.3 51.8 49.1 51.7 48.9C51.6 48.7 51.6 48.5 51.6 48.3C51.6 47.9 51.7 47.5 52 47.3C52.3 47 52.7 46.9 53.2 46.9C53.5 46.9 53.7 46.9 53.9 47C54.1 47.1 54.4 47.1 54.6 47.3L54.4 48C54.1 47.9 53.9 47.8 53.7 47.8C53.5 47.8 53.4 47.7 53.2 47.7C53 47.7 52.8 47.7 52.7 47.8C52.6 47.9 52.5 48 52.5 48.2C52.5 48.3 52.5 48.4 52.6 48.4C52.6 48.5 52.7 48.5 52.8 48.6C52.9 48.7 53.1 48.8 53.5 49C54 49.2 54.3 49.4 54.5 49.7C54.7 49.9 54.8 50.2 54.8 50.5Z" fill="white"/>
</g>
<path opacity="0.1" d="M246.9 70.5H174.6C173 70.5 171.8 69.2 171.8 67.7V3.3C171.8 1.7 173.1 0.5 174.6 0.5H246.9C248.5 0.5 249.7 1.8 249.7 3.3V67.6C249.8 69.2 248.5 70.5 246.9 70.5Z" fill="#008060"/>
<path opacity="0.1" d="M219.4 32.5V33.2C219.4 34.3 218.5 35.2 217.4 35.2H201.6C200.5 35.2 199.6 34.3 199.6 33.2V22.6C199.6 21.5 200.5 20.6 201.6 20.6H202.3V22.6H201.9C201.8 22.6 201.7 22.6999 201.7 22.7999V32.7999C201.7 32.8999 201.8 33 201.9 33H217.2C217.3 33 217.4 32.8999 217.4 32.7999V32.4H219.4V32.5ZM221.1 18.7H205.8C205.7 18.7 205.6 18.8 205.6 18.9V28.9C205.6 29 205.7 29.1 205.8 29.1H221.1C221.2 29.1 221.3 29 221.3 28.9V18.9C221.4 18.8 221.3 18.7 221.1 18.7ZM221.4 16.7C222.5 16.7 223.4 17.6 223.4 18.7V29.2C223.4 30.3 222.5 31.2 221.4 31.2H205.6C204.5 31.2 203.6 30.3 203.6 29.2V18.7C203.6 17.6 204.5 16.7 205.6 16.7H221.4ZM210.5 21.2999C210.5 22.1999 209.8 22.9 208.9 22.9C208 22.9 207.3 22.1999 207.3 21.2999C207.3 20.3999 208 19.7 208.9 19.7C209.8 19.7 210.5 20.3999 210.5 21.2999ZM207.6 25.2L209.2 23.6C209.4 23.4 209.7 23.4 209.9 23.6L211.5 25.2L215.8 20.9C216 20.7 216.3 20.7 216.5 20.9L219.4 23.7999V27.1H207.6V25.2V25.2Z" fill="#008060"/>
<g opacity="0.1">
<path opacity="0.1" d="M204.5 51.9H203.4V49.7H201.4V51.9H200.3V46.9H201.4V48.9H203.4V46.9H204.5V51.9Z" fill="white"/>
<path opacity="0.1" d="M208.7 51.9H205.8V46.9H208.7V47.8H206.9V48.9H208.6V49.8H206.9V51H208.7V51.9Z" fill="white"/>
<path opacity="0.1" d="M210.8 49.9001V51.8H209.7V46.8H211.2C211.9 46.8 212.4 46.9001 212.7 47.2001C213 47.4001 213.2 47.8 213.2 48.3C213.2 48.6 213.1 48.9 213 49.1C212.8 49.3 212.6 49.5 212.3 49.6C213.1 50.7 213.5 51.4 213.8 51.8H212.6L211.4 49.9001H210.8ZM210.8 49.1H211.1C211.4 49.1 211.7 49.0001 211.8 48.9001C212 48.8001 212 48.6001 212 48.4001C212 48.2001 211.9 48.0001 211.8 47.9001C211.6 47.8001 211.4 47.7001 211 47.7001H210.7V49.1H210.8Z" fill="white"/>
<path opacity="0.1" d="M218.9 49.4001C218.9 50.2001 218.7 50.9 218.3 51.3C217.9 51.7 217.3 52 216.5 52C215.7 52 215.1 51.8 214.7 51.3C214.3 50.8 214.1 50.2001 214.1 49.4001C214.1 48.6001 214.3 47.9 214.7 47.5C215.1 47.1 215.7 46.8 216.5 46.8C217.3 46.8 217.9 47 218.3 47.5C218.6 47.9 218.9 48.5001 218.9 49.4001ZM215.2 49.4001C215.2 50.0001 215.3 50.4001 215.5 50.7001C215.7 51.0001 216 51.1 216.5 51.1C217.3 51.1 217.8 50.5001 217.8 49.4001C217.8 48.3001 217.4 47.7001 216.5 47.7001C216.1 47.7001 215.8 47.8 215.5 48.1C215.3 48.4 215.2 48.8001 215.2 49.4001Z" fill="white"/>
<path opacity="0.1" d="M222.8 50.5C222.8 51 222.6 51.3 222.3 51.6C222 51.9 221.5 52 220.9 52C220.4 52 219.9 51.9 219.5 51.7V50.7C219.8 50.9 220.1 51 220.4 51C220.7 51 220.8 51.1 221 51.1C221.2 51.1 221.4 51.1 221.5 51C221.6 50.9 221.7 50.8 221.7 50.6C221.7 50.5 221.7 50.4 221.6 50.3C221.5 50.2 221.5 50.2 221.4 50.1C221.3 50 221.1 49.9 220.8 49.8C220.5 49.7 220.3 49.5 220.1 49.4C219.9 49.3 219.8 49.1 219.7 48.9C219.6 48.7 219.6 48.5 219.6 48.3C219.6 47.9 219.7 47.5 220 47.3C220.3 47.1 220.7 46.9 221.2 46.9C221.5 46.9 221.7 46.9 221.9 47C222.1 47.1 222.4 47.1 222.6 47.3L222.3 48.1C222 48 221.8 47.9 221.6 47.9C221.4 47.9 221.3 47.8 221.1 47.8C220.9 47.8 220.7 47.8 220.6 47.9C220.5 48 220.4 48.1 220.4 48.3C220.4 48.4 220.4 48.5 220.5 48.5C220.5 48.6 220.6 48.6 220.7 48.7C220.8 48.8 221 48.9 221.4 49.1C221.9 49.3 222.2 49.5 222.4 49.8C222.8 49.9 222.8 50.2 222.8 50.5Z" fill="white"/>
</g>
<path opacity="0.1" d="M160.6 150.5H88.3C86.7 150.5 85.5 149.2 85.5 147.7V83.3C85.5 81.7 86.8 80.5 88.3 80.5H160.6C162.2 80.5 163.4 81.8 163.4 83.3V147.6C163.5 149.2 162.2 150.5 160.6 150.5Z" fill="#008060"/>
<path opacity="0.1" d="M134.4 116.3H115.9C114.7 116.3 113.7 115.3 113.7 114.1V98.5C113.7 97.3 114.7 96.3 115.9 96.3H134.4C135.6 96.3 136.6 97.3 136.6 98.5V114.1C136.6 115.4 135.5 116.3 134.4 116.3ZM119.6 100.3C118.6 100.3 117.9 101.1 117.9 102C117.9 103 118.7 103.7 119.6 103.7C120.6 103.7 121.3 102.9 121.3 102C121.3 101.1 120.6 100.3 119.6 100.3ZM119.6 104.6C118.6 104.6 117.9 105.4 117.9 106.3C117.9 107.3 118.7 108 119.6 108C120.6 108 121.3 107.2 121.3 106.3C121.3 105.4 120.6 104.6 119.6 104.6ZM119.6 108.8C118.6 108.8 117.9 109.6 117.9 110.5C117.9 111.4 118.7 112.2 119.6 112.2C120.6 112.2 121.3 111.4 121.3 110.5C121.3 109.6 120.6 108.8 119.6 108.8ZM132.3 102.9V101.5C132.3 101.2 132.1 101 131.8 101H123C122.7 101 122.5 101.2 122.5 101.5V102.9C122.5 103.2 122.7 103.4 123 103.4H131.8C132.2 103.4 132.3 103.2 132.3 102.9ZM132.3 107.1V105.7C132.3 105.4 132.1 105.2 131.8 105.2H123C122.7 105.2 122.5 105.4 122.5 105.7V107.1C122.5 107.4 122.7 107.6 123 107.6H131.8C132.2 107.6 132.3 107.5 132.3 107.1ZM132.3 111.4V110C132.3 109.7 132.1 109.5 131.8 109.5H123C122.7 109.5 122.5 109.7 122.5 110V111.4C122.5 111.7 122.7 111.9 123 111.9H131.8C132.2 111.9 132.3 111.7 132.3 111.4Z" fill="#008060"/>
<g opacity="0.1">
<path opacity="0.1" d="M111.1 131.9H110.1V126.9H113V127.8H111.2V129.1H112.9V130H111.2V131.9H111.1Z" fill="white"/>
<path opacity="0.1" d="M118.4 129.4C118.4 130.2 118.2 130.9 117.8 131.3C117.4 131.7 116.8 132 116 132C115.2 132 114.6 131.8 114.2 131.3C113.8 130.9 113.6 130.2 113.6 129.4C113.6 128.6 113.8 127.9 114.2 127.5C114.6 127.1 115.2 126.8 116 126.8C116.8 126.8 117.4 127 117.8 127.5C118.2 127.9 118.4 128.5 118.4 129.4ZM114.8 129.4C114.8 130 114.9 130.4 115.1 130.7C115.3 131 115.6 131.1 116.1 131.1C116.9 131.1 117.4 130.5 117.4 129.4C117.4 128.3 117 127.7 116.1 127.7C115.7 127.7 115.4 127.8 115.1 128.1C114.9 128.4 114.8 128.8 114.8 129.4Z" fill="white"/>
<path opacity="0.1" d="M124 129.4C124 130.2 123.8 130.9 123.4 131.3C123 131.7 122.4 132 121.6 132C120.8 132 120.2 131.8 119.8 131.3C119.4 130.9 119.2 130.2 119.2 129.4C119.2 128.6 119.4 127.9 119.8 127.5C120.2 127.1 120.8 126.8 121.6 126.8C122.4 126.8 123 127 123.4 127.5C123.8 127.9 124 128.5 124 129.4ZM120.4 129.4C120.4 130 120.5 130.4 120.7 130.7C120.9 131 121.2 131.1 121.7 131.1C122.5 131.1 123 130.5 123 129.4C123 128.3 122.6 127.7 121.7 127.7C121.3 127.7 121 127.8 120.7 128.1C120.5 128.4 120.4 128.8 120.4 129.4Z" fill="white"/>
<path opacity="0.1" d="M127 131.9H125.9V127.8H124.5V126.9H128.3V127.8H127V131.9Z" fill="white"/>
<path opacity="0.1" d="M132 131.9H129.1V126.9H132V127.8H130.2V128.9H131.9V129.8H130.2V131.1H132V131.9Z" fill="white"/>
<path opacity="0.1" d="M134.1 129.9V131.8H133V126.8H134.5C135.2 126.8 135.7 126.9 136 127.2C136.3 127.4 136.5 127.8 136.5 128.3C136.5 128.6 136.4 128.9 136.3 129.1C136.1 129.3 135.9 129.5 135.6 129.6C136.4 130.7 136.8 131.4 137.1 131.8H135.9L134.7 129.9H134.1ZM134.1 129.1H134.4C134.7 129.1 135 129 135.1 128.9C135.3 128.8 135.3 128.6 135.3 128.4C135.3 128.2 135.2 128 135.1 127.9C135 127.8 134.7 127.7 134.3 127.7H134V129.1H134.1Z" fill="white"/>
<path opacity="0.1" d="M140.6 130.5C140.6 131 140.4 131.3 140.1 131.6C139.8 131.9 139.3 132 138.7 132C138.2 132 137.7 131.9 137.3 131.7V130.7C137.6 130.9 137.9 131 138.2 131C138.4 131.1 138.6 131.1 138.8 131.1C139 131.1 139.2 131.1 139.3 131C139.4 130.9 139.5 130.8 139.5 130.6C139.5 130.5 139.5 130.4 139.4 130.3C139.3 130.2 139.3 130.2 139.2 130.1C139.1 130 138.9 129.9 138.6 129.8C138.3 129.7 138.1 129.5 137.9 129.4C137.7 129.3 137.6 129.1 137.5 128.9C137.4 128.7 137.4 128.5 137.4 128.3C137.4 127.9 137.6 127.5 137.9 127.3C138.2 127 138.6 126.9 139.1 126.9C139.4 126.9 139.6 126.9 139.8 127C140 127.1 140.3 127.1 140.5 127.3L140.2 128.1C139.9 128 139.7 127.9 139.5 127.9C139.3 127.9 139.2 127.8 139 127.8C138.8 127.8 138.6 127.8 138.5 127.9C138.4 128 138.3 128.1 138.3 128.3C138.3 128.4 138.3 128.5 138.4 128.5C138.4 128.6 138.5 128.6 138.6 128.7C138.7 128.8 138.9 128.9 139.3 129.1C139.8 129.3 140.1 129.5 140.3 129.8C140.5 129.9 140.6 130.2 140.6 130.5Z" fill="white"/>
</g>
<path opacity="0.03" d="M246.6 150.5H174.3C172.7 150.5 171.5 149.2 171.5 147.7V83.3C171.5 81.7 172.8 80.5 174.3 80.5H246.6C248.2 80.5 249.4 81.8 249.4 83.3V147.6C249.5 149.2 248.2 150.5 246.6 150.5Z" fill="#008060"/>
<path opacity="0.03" d="M220.5 96.3H202C200.8 96.3 199.9 97.3 199.9 98.4V114.1C199.9 115.3 200.9 116.2 202 116.2H220.5C221.7 116.2 222.6 115.2 222.6 114.1V98.4C222.7 97.3 221.7 96.3 220.5 96.3ZM209.8 113.4H202.7V109.1H209.8V113.4ZM209.8 106.3H202.7V102H209.8V106.3ZM219.8 113.4H212.7V109.1H219.8V113.4ZM219.8 106.3H212.7V102H219.8V106.3Z" fill="#008060"/>
<g opacity="0.03">
<path opacity="0.03" d="M201.1 131.9H200V127.8H198.6V126.9H202.4V127.8H201V131.9H201.1Z" fill="white"/>
<path opacity="0.03" d="M206.2 131.9L205.8 130.7H204L203.6 131.9H202.5L204.3 126.9H205.6L207.4 131.9H206.2ZM205.6 129.8C205.3 128.7 205.1 128.1 205 128C205 127.9 204.9 127.7 204.9 127.7C204.8 128 204.6 128.7 204.3 129.9H205.6V129.8Z" fill="white"/>
<path opacity="0.03" d="M208 126.9H209.6C210.3 126.9 210.8 127 211.1 127.2C211.4 127.4 211.6 127.7 211.6 128.2C211.6 128.5 211.5 128.7 211.4 128.9C211.3 129.1 211.1 129.2 210.8 129.2C211.1 129.3 211.3 129.4 211.5 129.6C211.6 129.8 211.7 130.1 211.7 130.4C211.7 130.9 211.5 131.2 211.2 131.5C210.9 131.8 210.4 131.9 209.9 131.9H208V126.9ZM209.1 128.8H209.7C210 128.8 210.2 128.8 210.3 128.7C210.4 128.6 210.5 128.5 210.5 128.3C210.5 128.1 210.4 128 210.3 127.9C210.2 127.8 209.9 127.8 209.6 127.8H209V128.8H209.1ZM209.1 129.7V131H209.8C210.1 131 210.3 130.9 210.4 130.8C210.5 130.7 210.6 130.5 210.6 130.3C210.6 129.9 210.3 129.7 209.7 129.7H209.1V129.7Z" fill="white"/>
<path opacity="0.03" d="M212.7 131.9V126.9H213.8V131H215.8V131.9H212.7Z" fill="white"/>
<path opacity="0.03" d="M219.5 131.9H216.6V126.9H219.5V127.8H217.7V128.9H219.4V129.8H217.7V131.1H219.5V131.9Z" fill="white"/>
<path opacity="0.03" d="M223.5 130.5C223.5 131 223.3 131.3 223 131.6C222.7 131.9 222.2 132 221.6 132C221.1 132 220.6 131.9 220.2 131.7V130.7C220.5 130.9 220.8 131 221.1 131C221.3 131.1 221.5 131.1 221.7 131.1C221.9 131.1 222.1 131.1 222.2 131C222.3 130.9 222.4 130.8 222.4 130.6C222.4 130.5 222.4 130.4 222.3 130.3C222.2 130.2 222.2 130.2 222.1 130.1C222 130 221.8 129.9 221.5 129.8C221.2 129.7 221 129.5 220.8 129.4C220.6 129.3 220.5 129.1 220.4 128.9C220.3 128.7 220.3 128.5 220.3 128.3C220.3 127.9 220.5 127.5 220.8 127.3C221.1 127 221.5 126.9 222 126.9C222.3 126.9 222.5 126.9 222.7 127C222.9 127.1 223.2 127.1 223.4 127.3L223.1 128.1C222.8 128 222.6 127.9 222.4 127.9C222.2 127.9 222.1 127.8 221.9 127.8C221.7 127.8 221.5 127.8 221.4 127.9C221.3 128 221.2 128.1 221.2 128.3C221.2 128.4 221.2 128.5 221.3 128.5C221.3 128.6 221.4 128.6 221.5 128.7C221.6 128.8 221.8 128.9 222.2 129.1C222.7 129.3 223 129.5 223.2 129.8C223.4 129.9 223.5 130.2 223.5 130.5Z" fill="white"/>
</g>
<path opacity="0.03" d="M75.2 150.5H2.89998C1.29998 150.5 0.0999756 149.2 0.0999756 147.7V83.3C0.0999756 81.7 1.39998 80.5 2.89998 80.5H75.2C76.8 80.5 78 81.8 78 83.3V147.6C78.1 149.2 76.8 150.5 75.2 150.5Z" fill="#008060"/>
<path opacity="0.03" d="M50.1 97.2H34.5C33.9 97.2 33.4 97.7 33.4 98.3V101.7H39V99.5H45.7V110.7H50.2C50.8 110.7 51.3 110.2 51.3 109.6V98.4C51.3 97.7 50.8 97.2 50.1 97.2ZM37 100.9C37 101.1 36.9 101.2 36.7 101.2H35.7C35.5 101.2 35.4 101.1 35.4 100.9V99.9C35.4 99.7 35.5 99.6 35.7 99.6H36.7C36.9 99.6 37 99.7 37 99.9V100.9ZM49.3 108.1C49.3 108.3 49.2 108.4 49 108.4H48C47.8 108.4 47.7 108.3 47.7 108.1V107.1C47.7 106.9 47.8 106.8 48 106.8H49C49.2 106.8 49.3 106.9 49.3 107.1V108.1ZM49.3 104.5C49.3 104.7 49.2 104.8 49 104.8H48C47.8 104.8 47.7 104.7 47.7 104.5V103.5C47.7 103.3 47.8 103.2 48 103.2H49C49.2 103.2 49.3 103.3 49.3 103.5V104.5ZM49.3 100.9C49.3 101.1 49.2 101.2 49 101.2H48C47.8 101.2 47.7 101.1 47.7 100.9V99.9C47.7 99.7 47.8 99.6 48 99.6H49C49.2 99.6 49.3 99.7 49.3 99.9V100.9ZM43.4 102.8H30C29.4 102.8 28.9 103.3 28.9 103.9V114C28.9 114.6 29.4 115.1 30 115.1H43.4C44 115.1 44.5 114.6 44.5 114V104C44.5 103.3 44 102.8 43.4 102.8ZM32.2 105.1C32.8 105.1 33.3 105.6 33.3 106.2C33.3 106.8 32.8 107.3 32.2 107.3C31.6 107.3 31.1 106.8 31.1 106.2C31.1 105.6 31.6 105.1 32.2 105.1ZM42.3 112.9H31.1V111.8L33.3 109.6L34.4 110.7L38.9 106.2L42.3 109.6V112.9V112.9Z" fill="#008060"/>
<g opacity="0.03">
<path opacity="0.03" d="M3.69995 126.9H5.29995C5.99995 126.9 6.49995 127 6.79995 127.2C7.09995 127.4 7.29995 127.7 7.29995 128.2C7.29995 128.5 7.19995 128.7 7.09995 128.9C6.99995 129.1 6.79995 129.2 6.49995 129.2C6.79995 129.3 6.99995 129.4 7.19995 129.6C7.29995 129.8 7.39995 130.1 7.39995 130.4C7.39995 130.9 7.19995 131.2 6.89995 131.5C6.59995 131.8 6.09995 131.9 5.59995 131.9H3.69995V126.9ZM4.79995 128.8H5.39995C5.69995 128.8 5.89995 128.8 5.99995 128.7C6.09995 128.6 6.19995 128.5 6.19995 128.3C6.19995 128.1 6.09995 128 5.99995 127.9C5.89995 127.8 5.59995 127.8 5.29995 127.8H4.79995V128.8ZM4.79995 129.7V131H5.49995C5.79995 131 5.99995 130.9 6.09995 130.8C6.19995 130.7 6.29995 130.5 6.29995 130.3C6.29995 129.9 5.99995 129.7 5.39995 129.7H4.79995V129.7Z" fill="white"/>
<path opacity="0.03" d="M11.4999 131.9L11.0999 130.7H9.29993L8.89993 131.9H7.79993L9.59993 126.9H10.8999L12.6999 131.9H11.4999ZM10.7999 129.8C10.4999 128.7 10.2999 128.1 10.1999 128C10.1999 127.9 10.0999 127.7 10.0999 127.7C9.99993 128 9.79993 128.7 9.49993 129.9H10.7999V129.8Z" fill="white"/>
<path opacity="0.03" d="M15.4 127.7C15 127.7 14.7 127.8 14.5 128.1C14.3 128.4 14.2 128.8 14.2 129.4C14.2 130.5 14.6 131.1 15.5 131.1C15.9 131.1 16.3 131 16.8 130.8V131.7C16.4 131.9 15.9 132 15.4 132C14.7 132 14.1 131.8 13.7 131.3C13.3 130.9 13.1 130.2 13.1 129.4C13.1 128.9 13.2 128.4 13.4 128C13.6 127.6 13.9 127.3 14.2 127.1C14.6 126.9 15 126.8 15.4 126.8C15.9 126.8 16.4 126.9 16.9 127.2L16.6 128.1C16.4 128 16.2 127.9 16 127.9C15.8 127.9 15.5 127.7 15.4 127.7Z" fill="white"/>
<path opacity="0.03" d="M21.7 131.9H20.5L19.2 129.8L18.7999 130.1V131.9H17.7V126.9H18.7999V129.2L19.2 128.6L20.6 126.9H21.7999L20.1 129.1L21.7 131.9Z" fill="white"/>
<path opacity="0.03" d="M24.2 129.1H26.2V131.7C25.9 131.8 25.6 131.9 25.3 131.9C25 131.9 24.7 132 24.4 132C23.6 132 23.1 131.8 22.7 131.3C22.3 130.9 22.1 130.2 22.1 129.4C22.1 128.6 22.3 128 22.8 127.5C23.3 127 23.9 126.8 24.7 126.8C25.2 126.8 25.7 126.9 26.2 127.1L25.8 127.9C25.4 127.7 25.1 127.6 24.7 127.6C24.2 127.6 23.9 127.8 23.6 128.1C23.3 128.4 23.2 128.8 23.2 129.3C23.2 129.8 23.3 130.3 23.5 130.5C23.7 130.8 24 130.9 24.5 130.9C24.7 130.9 24.9 130.9 25.2 130.8V129.8H24.3V129.1H24.2Z" fill="white"/>
<path opacity="0.03" d="M28.4999 129.9V131.8H27.3999V126.8H28.8999C29.5999 126.8 30.0999 126.9 30.3999 127.2C30.6999 127.4 30.8999 127.8 30.8999 128.3C30.8999 128.6 30.7999 128.9 30.6999 129.1C30.4999 129.3 30.2999 129.5 29.9999 129.6C30.7999 130.7 31.1999 131.4 31.4999 131.8H30.2999L29.0999 129.9H28.4999ZM28.4999 129.1H28.7999C29.0999 129.1 29.3999 129 29.4999 128.9C29.5999 128.8 29.6999 128.6 29.6999 128.4C29.6999 128.2 29.5999 128 29.4999 127.9C29.2999 127.8 29.0999 127.7 28.6999 127.7H28.3999V129.1H28.4999Z" fill="white"/>
<path opacity="0.03" d="M36.5999 129.4C36.5999 130.2 36.3999 130.9 35.9999 131.3C35.5999 131.7 34.9999 132 34.1999 132C33.3999 132 32.7999 131.8 32.3999 131.3C31.9999 130.9 31.7999 130.2 31.7999 129.4C31.7999 128.6 31.9999 127.9 32.3999 127.5C32.7999 127.1 33.3999 126.8 34.1999 126.8C34.9999 126.8 35.5999 127 35.9999 127.5C36.3999 127.9 36.5999 128.5 36.5999 129.4ZM32.8999 129.4C32.8999 130 32.9999 130.4 33.1999 130.7C33.3999 131 33.6999 131.1 34.1999 131.1C34.9999 131.1 35.4999 130.5 35.4999 129.4C35.4999 128.3 35.0999 127.7 34.1999 127.7C33.7999 127.7 33.4999 127.8 33.1999 128.1C32.9999 128.4 32.8999 128.8 32.8999 129.4Z" fill="white"/>
<path opacity="0.03" d="M41.7 126.9V130.1C41.7 130.5 41.6 130.8 41.5 131.1C41.3 131.4 41.0999 131.6 40.7999 131.7C40.4999 131.8 40.1 131.9 39.7 131.9C39.1 131.9 38.6 131.7 38.2 131.4C37.8 131.1 37.7 130.6 37.7 130V126.8H38.7999V129.9C38.7999 130.3 38.9 130.6 39 130.7C39.2 130.9 39.3999 131 39.7999 131C40.0999 131 40.3999 130.9 40.5999 130.7C40.7999 130.5 40.7999 130.2 40.7999 129.8V126.7H41.7V126.9Z" fill="white"/>
<path opacity="0.03" d="M47.3 131.9H46L43.8 128.1C43.8 128.8 43.9 129.2 43.9 129.5V131.9H43V126.9H44.3L46.5 130.6C46.5 130 46.4 129.5 46.4 129.2V126.8H47.4V131.9H47.3Z" fill="white"/>
<path opacity="0.03" d="M52.7 129.3C52.7 130.1 52.5 130.8 52 131.2C51.5 131.6 50.9 131.9 50 131.9H48.6V126.9H50.2C51 126.9 51.6 127.1 52.1 127.5C52.5 127.9 52.7 128.5 52.7 129.3ZM51.6 129.3C51.6 128.2 51.1 127.7 50.2 127.7H49.6V131H50.1C51.1 131 51.6 130.4 51.6 129.3Z" fill="white"/>
<path opacity="0.03" d="M58.3999 126.9H59.4999L57.7999 131.9H56.5999L54.8999 126.9H55.9999L56.8999 129.9C56.9999 130.1 56.9999 130.3 57.0999 130.5C57.1999 130.7 57.1999 130.9 57.1999 131C57.1999 130.8 57.2999 130.4 57.4999 129.9L58.3999 126.9Z" fill="white"/>
<path opacity="0.03" d="M60.1 131.9V126.9H61.2V131.9H60.1Z" fill="white"/>
<path opacity="0.03" d="M66.6 129.3C66.6 130.1 66.4 130.8 65.9 131.2C65.4 131.6 64.8 131.9 63.9 131.9H62.5V126.9H64C64.8 126.9 65.4 127.1 65.9 127.5C66.4 127.9 66.6 128.5 66.6 129.3ZM65.5 129.3C65.5 128.2 65 127.7 64.1 127.7H63.5V131H64C65 131 65.5 130.4 65.5 129.3Z" fill="white"/>
<path opacity="0.03" d="M70.5 131.9H67.6V126.9H70.5V127.8H68.7V128.9H70.4V129.8H68.7V131.1H70.5V131.9Z" fill="white"/>
<path opacity="0.03" d="M76.0999 129.4C76.0999 130.2 75.8999 130.9 75.4999 131.3C75.0999 131.7 74.4999 132 73.6999 132C72.8999 132 72.2999 131.8 71.8999 131.3C71.4999 130.9 71.2999 130.2 71.2999 129.4C71.2999 128.6 71.4999 127.9 71.8999 127.5C72.2999 127.1 72.8999 126.8 73.6999 126.8C74.4999 126.8 75.0999 127 75.4999 127.5C75.8999 127.9 76.0999 128.5 76.0999 129.4ZM72.3999 129.4C72.3999 130 72.4999 130.4 72.6999 130.7C72.8999 131 73.1999 131.1 73.5999 131.1C74.3999 131.1 74.8999 130.5 74.8999 129.4C74.8999 128.3 74.4999 127.7 73.5999 127.7C73.1999 127.7 72.8999 127.8 72.5999 128.1C72.4999 128.4 72.3999 128.8 72.3999 129.4Z" fill="white"/>
</g>
</g>
<defs>
<clipPath id="clip0">
<rect width="250" height="150" fill="white"/>
</clipPath>
</defs>
</svg>
