<svg width="250" height="150" viewBox="0 0 250 150" fill="none" xmlns="http://www.w3.org/2000/svg">
<path opacity="0.4" d="M225.7 149.7H44.3C41.9 149.7 40 148 40 145.9V21.1C40 19.0001 41.9 17.3 44.3 17.3H225.7C228.1 17.3 230 19.0001 230 21.1V145.8C230 148.1 228.1 149.7 225.7 149.7Z" fill="#008060"/>
<g opacity="0.4">
<path opacity="0.4" d="M225.9 17.4H44.2C41.9 17.4 40 19 40 21V25H230V21C230 19 228.2 17.4 225.9 17.4Z" fill="#008060"/>
<path opacity="0.4" d="M47.5 22.4C48.1628 22.4 48.7001 21.8627 48.7001 21.2C48.7001 20.5373 48.1628 20 47.5 20C46.8373 20 46.3 20.5373 46.3 21.2C46.3 21.8627 46.8373 22.4 47.5 22.4Z" fill="white"/>
<path opacity="0.4" d="M53.5 22.4C54.1628 22.4 54.7001 21.8627 54.7001 21.2C54.7001 20.5373 54.1628 20 53.5 20C52.8373 20 52.3 20.5373 52.3 21.2C52.3 21.8627 52.8373 22.4 53.5 22.4Z" fill="white"/>
<path opacity="0.4" d="M59.5 22.4C60.1628 22.4 60.7001 21.8627 60.7001 21.2C60.7001 20.5373 60.1628 20 59.5 20C58.8373 20 58.3 20.5373 58.3 21.2C58.3 21.8627 58.8373 22.4 59.5 22.4Z" fill="white"/>
</g>
<g opacity="0.4">
<path opacity="0.4" d="M193.3 82.5H76.9C75.5 82.5 74.4 81.4 74.4 80V56C74.4 54.6 75.5 53.5 76.9 53.5H193.3C194.7 53.5 195.8 54.6 195.8 56V80C195.8 81.4 194.7 82.5 193.3 82.5Z" stroke="white" stroke-width="5" stroke-miterlimit="10"/>
<path opacity="0.4" d="M74.5 103.6H186.2" stroke="white" stroke-width="5" stroke-miterlimit="10" stroke-linecap="round"/>
<path opacity="0.4" d="M74.5 120H153.9" stroke="white" stroke-width="5" stroke-miterlimit="10" stroke-linecap="round"/>
</g>
<path opacity="0.7" d="M215.7 141.7H34.3C31.9 141.7 30 140 30 137.9V13.1C30 11 31.9 9.30005 34.3 9.30005H215.7C218.1 9.30005 220 11 220 13.1V137.8C220 140.1 218.1 141.7 215.7 141.7Z" fill="white"/>
<path opacity="0.7" d="M215.7 141.7H34.3C31.9 141.7 30 140 30 137.9V13.1C30 11 31.9 9.30005 34.3 9.30005H215.7C218.1 9.30005 220 11 220 13.1V137.8C220 140.1 218.1 141.7 215.7 141.7Z" fill="#008060" fill-opacity="0.8"/>
<g opacity="0.7">
<path opacity="0.7" d="M215.9 9.40002H34.2C31.9 9.40002 30 11 30 13V17H220V13C220 11 218.2 9.40002 215.9 9.40002Z" fill="#008060"/>
<path opacity="0.7" d="M37.5 14.4C38.1628 14.4 38.7001 13.8627 38.7001 13.2C38.7001 12.5373 38.1628 12 37.5 12C36.8373 12 36.3 12.5373 36.3 13.2C36.3 13.8627 36.8373 14.4 37.5 14.4Z" fill="white"/>
<path opacity="0.7" d="M43.5 14.4C44.1628 14.4 44.7001 13.8627 44.7001 13.2C44.7001 12.5373 44.1628 12 43.5 12C42.8373 12 42.3 12.5373 42.3 13.2C42.3 13.8627 42.8373 14.4 43.5 14.4Z" fill="white"/>
<path opacity="0.7" d="M49.5 14.4C50.1628 14.4 50.7001 13.8627 50.7001 13.2C50.7001 12.5373 50.1628 12 49.5 12C48.8373 12 48.3 12.5373 48.3 13.2C48.3 13.8627 48.8373 14.4 49.5 14.4Z" fill="white"/>
</g>
<g opacity="0.7">
<path opacity="0.7" d="M183.3 74.5H66.9C65.5 74.5 64.4 73.4 64.4 72V48C64.4 46.6 65.5 45.5 66.9 45.5H183.3C184.7 45.5 185.8 46.6 185.8 48V72C185.8 73.4 184.7 74.5 183.3 74.5Z" stroke="white" stroke-width="5" stroke-miterlimit="10"/>
<path opacity="0.7" d="M64.5 95.6H176.2" stroke="white" stroke-width="5" stroke-miterlimit="10" stroke-linecap="round"/>
<path opacity="0.7" d="M64.5 112H143.9" stroke="white" stroke-width="5" stroke-miterlimit="10" stroke-linecap="round"/>
</g>
<path d="M205.7 132.7H24.3C21.9 132.7 20 131 20 128.9V4.10005C20 2.00005 21.9 0.300049 24.3 0.300049H205.7C208.1 0.300049 210 2.00005 210 4.10005V128.8C210 131.1 208.1 132.7 205.7 132.7Z" fill="white"/>
<path d="M205.7 132.7H24.3C21.9 132.7 20 131 20 128.9V4.10005C20 2.00005 21.9 0.300049 24.3 0.300049H205.7C208.1 0.300049 210 2.00005 210 4.10005V128.8C210 131.1 208.1 132.7 205.7 132.7Z" fill="#008060" fill-opacity="0.8"/>
<path d="M205.9 0.400024H24.2C21.9 0.400024 20 2.00002 20 4.00002V8.00002H210V4.00002C210 2.00002 208.2 0.400024 205.9 0.400024Z" fill="#035A4B"/>
<path d="M27.5 5.4C28.1628 5.4 28.7001 4.86274 28.7001 4.2C28.7001 3.53726 28.1628 3 27.5 3C26.8373 3 26.3 3.53726 26.3 4.2C26.3 4.86274 26.8373 5.4 27.5 5.4Z" fill="white"/>
<path d="M33.5 5.4C34.1628 5.4 34.7001 4.86274 34.7001 4.2C34.7001 3.53726 34.1628 3 33.5 3C32.8373 3 32.3 3.53726 32.3 4.2C32.3 4.86274 32.8373 5.4 33.5 5.4Z" fill="white"/>
<path d="M39.5 5.4C40.1628 5.4 40.7001 4.86274 40.7001 4.2C40.7001 3.53726 40.1628 3 39.5 3C38.8373 3 38.3 3.53726 38.3 4.2C38.3 4.86274 38.8373 5.4 39.5 5.4Z" fill="white"/>
<g opacity="0.8">
<path opacity="0.8" d="M173.3 65.5H56.9C55.5 65.5 54.4 64.4 54.4 63V39C54.4 37.6 55.5 36.5 56.9 36.5H173.3C174.7 36.5 175.8 37.6 175.8 39V63C175.8 64.4 174.7 65.5 173.3 65.5Z" stroke="white" stroke-width="5" stroke-miterlimit="10"/>
<path opacity="0.8" d="M54.5 86.6H166.2" stroke="white" stroke-width="5" stroke-miterlimit="10" stroke-linecap="round"/>
<path opacity="0.8" d="M54.5 103H133.9" stroke="white" stroke-width="5" stroke-miterlimit="10" stroke-linecap="round"/>
</g>
</svg>
