<svg width="827" height="593" viewBox="0 0 827 593" fill="none" xmlns="http://www.w3.org/2000/svg">
<path d="M535.929 94.2467C591.676 76.7373 629.436 113.453 641.347 134C671.722 41.0933 606.506 2.23333 551.563 16.08C493.941 28.14 467.437 14.5911 455.079 0C458.801 38.7111 480.183 111.756 535.929 94.2467Z" fill="#223B41"/>
<path d="M506.236 94C494.516 131.195 486.476 210.584 548.07 230.58C574.328 236.829 612.157 222.546 626.398 185.946L637.079 162.29" stroke="#223B41" stroke-width="5" stroke-linecap="round"/>
<path d="M637.079 138.56C639.732 134.147 646.067 128.173 650.187 139.578C654.306 150.984 643.165 159.945 637.079 163" stroke="#223B41" stroke-width="5" stroke-linecap="round"/>
<path d="M642.079 142C643.479 142.933 645.531 145.64 642.546 149" stroke="#223B41" stroke-width="5" stroke-linecap="round"/>
<path d="M552.079 121C551.17 127.407 546.897 141.776 537.079 148" stroke="#223B41" stroke-width="5" stroke-linecap="round"/>
<path d="M551.079 156C549.875 153.333 543.582 148.711 537.079 148" stroke="#223B41" stroke-width="5" stroke-linecap="round"/>
<path d="M580.079 110.007C584.762 109.861 594.918 111.854 598.079 121" stroke="#223B41" stroke-width="5" stroke-linecap="round"/>
<path d="M511.079 119C511.954 114.85 515.979 106.643 525.079 107.012" stroke="#223B41" stroke-width="5" stroke-linecap="round"/>
<ellipse cx="526.579" cy="123" rx="4.5" ry="6" fill="#223B41"/>
<ellipse cx="584.079" cy="131" rx="4" ry="5" fill="#223B41"/>
<path d="M623.079 226C667.019 241.061 763.299 284.605 796.902 338.289C830.505 391.974 792.88 418.368 761.601 428.211L700.83 447" stroke="#223B41" stroke-width="5" stroke-linecap="round"/>
<path d="M540.016 229.114L536.877 258.148M628.801 184L618.488 247.428M522.079 256.362C540.464 261.424 588.803 265.116 635.079 239.388" stroke="#223B41" stroke-width="5" stroke-linecap="round"/>
<path d="M499.964 324C474.035 354.848 461.318 478.602 487.447 568.104C512.482 588.222 566.575 607.447 697.114 562.739C703.819 557.374 703.416 560.486 702.701 531.575C701.806 495.436 702.253 414.7 692.857 373.178" stroke="#223B41" stroke-width="5" stroke-linecap="round"/>
<path d="M806.952 394C821.828 412.237 836.585 469.607 806.952 502.971C777.32 536.335 724.69 568.892 702.079 581M702.079 494.002L740.905 451.4C743.433 448.411 747.599 440.548 744.028 433.014" stroke="#223B41" stroke-width="5" stroke-linecap="round"/>
<path d="M537.079 230.5C508.912 228 456.079 235 403.579 262C380.246 274 323.879 286.4 285.079 240C281.079 235.5 276.579 229 275.579 222C274.891 217.183 269.746 213.833 266.579 214M267.079 222C267.079 218.333 267.379 211.1 258.579 211.5M260.579 218.5C259.246 214.667 255.469 207.4 248.669 211M255.079 223C252.912 221.667 250.079 216.2 248.079 209C246.079 201.8 235.579 195.667 230.579 193.5C227.912 192.333 222.579 191.7 222.579 198.5C222.579 204.5 237.279 209.7 238.079 218.5C238.879 227.3 238.412 231.167 238.079 232C237.246 233.667 234.279 235.7 229.079 230.5C223.879 225.3 217.079 224 213.579 225C210.579 226 206.379 229.4 213.579 235C218.928 239.161 236.479 246.9 252.079 266.5C267.679 286.1 287.246 307 295.079 315C311.246 329.167 355.579 354.4 403.579 342" stroke="#223B41" stroke-width="5" stroke-linecap="round"/>
<path d="M537.079 186.906C541.998 191.103 555.209 194.59 563.079 184" stroke="#223B41" stroke-width="5" stroke-linecap="round"/>
<path d="M410.8 270C411.547 285.061 411.248 323.147 404.079 355" stroke="#223B41" stroke-width="5" stroke-linecap="round"/>
<path d="M404.079 354.902C422.023 357.741 469.388 357.054 517.079 328" stroke="#223B41" stroke-width="5" stroke-linecap="round"/>
<path d="M392.579 345C394.412 348.5 398.579 353 403.579 353" stroke="#223B41" stroke-width="5" stroke-linecap="round"/>
<path d="M222.045 146.522C211.53 127.065 179.608 90.0223 135.294 115.84C111.509 132.054 73.7791 181.17 113.136 247.921C121.148 260.892 148.062 283.766 191.626 271.494" stroke="#223B41" stroke-width="5" stroke-linecap="round"/>
<path d="M202.423 156.826C200.036 149.073 189.534 133.867 166.62 135.067M150.038 136.568C138.857 135.942 117.326 141.895 120.642 170.707C123.958 199.519 120.014 204.721 117.627 203.72M111.974 206.722C108.959 207.847 104.663 207.922 101.045 206.722M104.437 224.354C106.07 225.229 110.165 226.455 113.482 224.354M118.758 222.853C125.165 221.478 136.697 212.349 131.571 186.839M133.079 174.083C131.195 169.456 129.31 158.927 136.848 153.825C144.385 148.723 152.802 147.947 156.068 148.198M173.027 148.198C180.313 150.073 195.187 157.576 196.393 172.583M200.162 178.21C201.669 180.586 204.232 186.989 202.423 193.591M194.132 227.73C193.252 239.485 186.896 265.396 168.505 275M151.169 273.499C155.44 272.249 164.887 267.497 168.505 258.493M173.027 252.866C178.178 247.489 184.333 226.605 181.695 190.965M188.102 186.839C187.851 179.961 184.484 164.854 173.027 159.452M161.344 156.826C153.681 157.701 142.027 164.729 145.139 187.964C148.154 210.473 146.646 212.349 145.139 215.35M141.37 220.978C139.36 227.355 132.702 240.786 122.15 243.487M136.848 252.866C135.466 254.492 131.345 257.893 125.918 258.493M136.848 265.246C146.269 263.745 163.286 255.579 168.505 229.606C173.404 205.221 173.027 200.344 170.766 185.713M173.404 177.46C173.655 174.333 172.575 168.156 166.243 168.456C159.912 168.756 159.585 176.834 160.213 180.836C162.852 197.643 159.007 233.958 145.139 242.361" stroke="#223B41" stroke-width="5" stroke-linecap="round"/>
<path d="M334.545 84V8.5H258.045" stroke="#223B41" stroke-opacity="0.6" stroke-width="10" stroke-linecap="round"/>
<path d="M334.545 361.5V382.5H258.045" stroke="#223B41" stroke-opacity="0.6" stroke-width="10" stroke-linecap="round"/>
<path d="M5.04492 84V8.5H81.5449" stroke="#223B41" stroke-opacity="0.6" stroke-width="10" stroke-linecap="round"/>
<path d="M5.04492 307V382.5H81.5449" stroke="#223B41" stroke-opacity="0.6" stroke-width="10" stroke-linecap="round"/>
</svg>
