<svg width="135" height="40" viewBox="0 0 135 40" fill="none" xmlns="http://www.w3.org/2000/svg">
<path d="M19.1827 39.3836C29.777 39.3836 38.3653 30.7054 38.3653 20.0004C38.3653 9.29534 29.777 0.617188 19.1827 0.617188C8.58837 0.617188 0 9.29534 0 20.0004C0 30.7054 8.58837 39.3836 19.1827 39.3836Z" fill="#fff"/>
<path d="M19.1827 29.5711C15.2601 29.5711 12.2463 27.4443 12.2463 23.964H15.7384C15.9776 25.6075 16.8865 26.7676 19.2305 26.7676C21.5746 26.7676 22.7227 25.6075 22.7227 23.964C22.7227 19.2753 12.5334 22.3206 12.5334 15.07C12.5334 11.5414 15.3079 9.46289 19.2305 9.46289C22.914 9.46289 25.4972 11.348 25.6886 14.8283H22.1964C22.1964 13.4265 21.0484 12.2664 18.9435 12.2664C17.0779 12.2664 15.6906 13.1848 15.6906 15.07C15.6906 19.517 25.8799 16.7135 25.8799 23.964C25.9277 26.7676 23.5837 29.5711 19.1827 29.5711Z" fill="#008060"/>
<path d="M61.8115 24.9043C61.8115 24.0742 61.5186 23.4395 60.9326 23C60.3467 22.5508 59.292 22.082 57.7686 21.5938C56.2451 21.0957 55.0391 20.6074 54.1504 20.1289C51.7285 18.8203 50.5176 17.0576 50.5176 14.8408C50.5176 13.6885 50.8398 12.6631 51.4844 11.7646C52.1387 10.8564 53.0713 10.1484 54.2822 9.64062C55.5029 9.13281 56.8701 8.87891 58.3838 8.87891C59.9072 8.87891 61.2646 9.15723 62.4561 9.71387C63.6475 10.2607 64.5703 11.0371 65.2246 12.043C65.8887 13.0488 66.2207 14.1914 66.2207 15.4707H61.8262C61.8262 14.4941 61.5186 13.7373 60.9033 13.2002C60.2881 12.6533 59.4238 12.3799 58.3105 12.3799C57.2363 12.3799 56.4014 12.6094 55.8057 13.0684C55.21 13.5176 54.9121 14.1133 54.9121 14.8555C54.9121 15.5488 55.2588 16.1299 55.9521 16.5986C56.6553 17.0674 57.6855 17.5068 59.043 17.917C61.543 18.6689 63.3643 19.6016 64.5068 20.7148C65.6494 21.8281 66.2207 23.2148 66.2207 24.875C66.2207 26.7207 65.5225 28.1709 64.126 29.2256C62.7295 30.2705 60.8496 30.793 58.4863 30.793C56.8457 30.793 55.3516 30.4951 54.0039 29.8994C52.6562 29.2939 51.626 28.4688 50.9131 27.4238C50.21 26.3789 49.8584 25.168 49.8584 23.791H54.2676C54.2676 26.1445 55.6738 27.3213 58.4863 27.3213C59.5312 27.3213 60.3467 27.1113 60.9326 26.6914C61.5186 26.2617 61.8115 25.666 61.8115 24.9043ZM83.1982 22.7217C83.1982 25.1631 82.6416 27.1211 81.5283 28.5957C80.4248 30.0605 78.9307 30.793 77.0459 30.793C75.4443 30.793 74.1504 30.2363 73.1641 29.123V36.5938H68.9307V14.6504H72.8564L73.0029 16.2031C74.0283 14.9727 75.3662 14.3574 77.0166 14.3574C78.9697 14.3574 80.4883 15.0801 81.5723 16.5254C82.6562 17.9707 83.1982 19.9629 83.1982 22.502V22.7217ZM78.9648 22.4141C78.9648 20.9395 78.7012 19.8018 78.1738 19.001C77.6562 18.2002 76.8994 17.7998 75.9033 17.7998C74.5752 17.7998 73.6621 18.3076 73.1641 19.3232V25.8125C73.6816 26.8574 74.6045 27.3799 75.9326 27.3799C77.9541 27.3799 78.9648 25.7246 78.9648 22.4141ZM95.0195 30.5C94.8242 30.1191 94.6826 29.6455 94.5947 29.0791C93.5693 30.2217 92.2363 30.793 90.5957 30.793C89.043 30.793 87.7539 30.3438 86.7285 29.4453C85.7129 28.5469 85.2051 27.4141 85.2051 26.0469C85.2051 24.3672 85.8252 23.0781 87.0654 22.1797C88.3154 21.2812 90.1172 20.8271 92.4707 20.8174H94.4189V19.9092C94.4189 19.1768 94.2285 18.5908 93.8477 18.1514C93.4766 17.7119 92.8857 17.4922 92.0752 17.4922C91.3623 17.4922 90.8008 17.6631 90.3906 18.0049C89.9902 18.3467 89.79 18.8154 89.79 19.4111H85.5566C85.5566 18.4932 85.8398 17.6436 86.4062 16.8623C86.9727 16.0811 87.7734 15.4707 88.8086 15.0312C89.8438 14.582 91.0059 14.3574 92.2949 14.3574C94.248 14.3574 95.7959 14.8506 96.9385 15.8369C98.0908 16.8135 98.667 18.1904 98.667 19.9678V26.8379C98.6768 28.3418 98.8867 29.4795 99.2969 30.251V30.5H95.0195ZM91.5186 27.5557C92.1436 27.5557 92.7197 27.4189 93.2471 27.1455C93.7744 26.8623 94.165 26.4863 94.4189 26.0176V23.293H92.8369C90.7178 23.293 89.5898 24.0254 89.4531 25.4902L89.4385 25.7393C89.4385 26.2666 89.624 26.7012 89.9951 27.043C90.3662 27.3848 90.874 27.5557 91.5186 27.5557ZM108.511 27.3799C109.292 27.3799 109.927 27.165 110.415 26.7354C110.903 26.3057 111.157 25.7344 111.177 25.0215H115.146C115.137 26.0957 114.844 27.082 114.268 27.9805C113.691 28.8691 112.9 29.5625 111.895 30.0605C110.898 30.5488 109.795 30.793 108.584 30.793C106.318 30.793 104.531 30.0752 103.223 28.6396C101.914 27.1943 101.26 25.2021 101.26 22.6631V22.3848C101.26 19.9434 101.909 17.9951 103.208 16.54C104.507 15.085 106.289 14.3574 108.555 14.3574C110.537 14.3574 112.124 14.9238 113.315 16.0566C114.517 17.1797 115.127 18.6787 115.146 20.5537H111.177C111.157 19.7334 110.903 19.0693 110.415 18.5615C109.927 18.0439 109.282 17.7852 108.481 17.7852C107.495 17.7852 106.748 18.1465 106.24 18.8691C105.742 19.582 105.493 20.7441 105.493 22.3555V22.7949C105.493 24.4258 105.742 25.5977 106.24 26.3105C106.738 27.0234 107.495 27.3799 108.511 27.3799ZM124.858 30.793C122.534 30.793 120.64 30.0801 119.175 28.6543C117.72 27.2285 116.992 25.3291 116.992 22.9561V22.5459C116.992 20.9541 117.3 19.5332 117.915 18.2832C118.53 17.0234 119.399 16.0566 120.522 15.3828C121.655 14.6992 122.944 14.3574 124.39 14.3574C126.558 14.3574 128.262 15.041 129.502 16.4082C130.752 17.7754 131.377 19.7139 131.377 22.2236V23.9521H121.284C121.421 24.9873 121.831 25.8174 122.515 26.4424C123.208 27.0674 124.082 27.3799 125.137 27.3799C126.768 27.3799 128.042 26.7891 128.96 25.6074L131.04 27.9365C130.405 28.835 129.546 29.5381 128.462 30.0459C127.378 30.5439 126.177 30.793 124.858 30.793ZM124.375 17.7852C123.535 17.7852 122.852 18.0684 122.324 18.6348C121.807 19.2012 121.475 20.0117 121.328 21.0664H127.217V20.7295C127.197 19.792 126.943 19.0693 126.455 18.5615C125.967 18.0439 125.273 17.7852 124.375 17.7852Z" fill="#fff"/>
</svg>
